<svg xmlns="http://www.w3.org/2000/svg" width="8" height="10" viewBox="0 0 8 10" fill="none">
    <path
        d="M7.89317 2.12498C7.85752 2.08468 7.81386 2.05209 7.76491 2.02926C7.71596 2.00644 7.66278 1.99386 7.60869 1.99231C6.76843 1.97056 5.7052 1.08105 5.00224 0.73198C4.56801 0.517032 4.28133 0.375304 4.06605 0.337968C4.02234 0.331662 3.97792 0.331784 3.93425 0.338331C3.71896 0.375666 3.43229 0.517394 2.99843 0.732343C2.29547 1.08105 1.23224 1.97056 0.391976 1.99231C0.337852 1.99394 0.284642 2.00655 0.235643 2.02937C0.186645 2.05219 0.142904 2.08473 0.10713 2.12498C0.0329795 2.20803 -0.00527834 2.31659 0.00058725 2.42728C0.181087 6.06038 1.49731 8.30882 3.80684 9.61555C3.86688 9.64926 3.93351 9.66666 3.99978 9.66666C4.06605 9.66666 4.13269 9.64926 4.1931 9.61555C6.50262 8.30882 7.81848 6.06038 7.99935 2.42728C8.00555 2.3166 7.9674 2.20797 7.89317 2.12498ZM6.05668 3.55386L4.10779 6.40111C4.03786 6.50333 3.92802 6.57111 3.81928 6.57111C3.71018 6.57111 3.58899 6.51203 3.51247 6.43627L2.13876 5.0759C2.09391 5.03133 2.06873 4.97098 2.06873 4.90807C2.06873 4.84516 2.09391 4.78481 2.13876 4.74024L2.47816 4.4035C2.52327 4.35928 2.58419 4.33447 2.64768 4.33447C2.71117 4.33447 2.77209 4.35928 2.8172 4.4035L3.71054 5.28795L5.26255 3.01993C5.29846 2.96803 5.35365 2.93231 5.41608 2.92056C5.4785 2.90881 5.54309 2.92199 5.59573 2.95722L5.99298 3.22401C6.04546 3.2595 6.08162 3.31412 6.09355 3.37592C6.10549 3.43773 6.09223 3.5017 6.05668 3.55386Z"
        fill="#3861FB" />
</svg>