<svg xmlns="http://www.w3.org/2000/svg" width="12" height="17" viewBox="0 0 12 17" fill="none">
  <path
    d="M7.60331 16.4058C8.93356 16.2196 10.3258 15.2587 10.8698 14.3562C11.6098 13.1235 11.6007 11.8106 11.3659 10.459C10.7574 6.917 11.3659 6.46421 12 5.76005C10.9194 6.18557 9.90913 6.53766 9.24938 7.29255C8.4375 5.00061 8.21593 3.25003 5.03705 0.5C5.14453 1.14208 5.33882 1.78719 5.35122 2.44592C5.39008 4.49028 3.59105 6.37108 3.21157 6.8375C2.18309 8.09288 1.63247 9.46108 1.66388 10.9709L1.66802 11.1874C1.13476 10.7627 0.789174 10.032 0.694924 9.10067C0.0194635 9.87298 -0.15333 11.2745 0.131902 12.2399C0.832165 14.606 2.36415 15.841 4.78737 16.3937C5.48764 16.552 6.85013 16.5118 7.60331 16.4058Z"
    fill="url(#paint0_linear_97_585)" />
  <path style="mix-blend-mode:multiply" opacity="0.42"
    d="M7.60331 16.4058C8.93356 16.2196 10.3258 15.2587 10.8698 14.3562C11.6098 13.1235 11.6007 11.8106 11.3659 10.459C10.7574 6.917 11.3659 6.46421 12 5.76005C10.9194 6.18557 9.90913 6.53766 9.24938 7.29255C8.4375 5.00061 8.21593 3.25003 5.03705 0.5C5.14453 1.14208 5.33882 1.78719 5.35122 2.44592C5.39008 4.49028 3.59105 6.37108 3.21157 6.8375C2.18309 8.09288 1.63247 9.46108 1.66388 10.9709L1.66802 11.1874C1.13476 10.7627 0.789174 10.032 0.694924 9.10067C0.0194635 9.87298 -0.15333 11.2745 0.131902 12.2399C0.832165 14.606 2.36415 15.841 4.78737 16.3937C5.48764 16.552 6.85013 16.5118 7.60331 16.4058Z"
    fill="url(#paint1_linear_97_585)" />
  <path
    d="M7.61077 16.4187C8.58304 16.2589 9.59499 15.4351 9.98853 14.659C10.5267 13.6028 10.5201 12.4769 10.3515 11.3177C9.90833 8.28066 10.3515 7.89223 10.8128 7.28801C10.0266 7.65297 9.2924 7.95508 8.81288 8.60245C8.22258 6.63836 8.05888 5.1369 5.74809 2.7821C5.82581 3.33257 5.96718 3.88833 5.97628 4.44787C6.00439 6.20375 4.66339 7.43642 4.38725 7.83317C3.64317 8.90911 2.62543 9.88813 2.6213 10.9527C2.6213 11.9317 3.34306 13.0894 3.33892 12.8994C2.7048 12.7442 1.32494 11.9908 0.977704 11.1738C0.662709 12.5677 1.31337 13.6331 1.73832 14.2267C2.4485 15.2186 3.33975 15.9311 4.7874 16.3899C5.28676 16.552 7.06594 16.5096 7.61077 16.4187Z"
    fill="url(#paint2_linear_97_585)" />
  <path style="mix-blend-mode:multiply" opacity="0.42"
    d="M7.61077 16.4187C8.58304 16.2589 9.59499 15.4351 9.98853 14.659C10.5267 13.6028 10.5201 12.4769 10.3515 11.3177C9.90833 8.28066 10.3515 7.89223 10.8128 7.28801C10.0266 7.65297 9.2924 7.95508 8.81288 8.60245C8.22258 6.63836 8.05888 5.1369 5.74809 2.7821C5.82581 3.33257 5.96718 3.88833 5.97628 4.44787C6.00439 6.20375 4.66339 7.43642 4.38725 7.83317C3.64317 8.90911 2.62543 9.88813 2.6213 10.9527C2.6213 11.9317 3.34306 13.0894 3.33892 12.8994C2.7048 12.7442 1.32494 11.9908 0.977704 11.1738C0.662709 12.5677 1.31337 13.6331 1.73832 14.2267C2.4485 15.2186 3.33975 15.9311 4.7874 16.3899C5.28676 16.552 7.06594 16.5096 7.61077 16.4187Z"
    fill="url(#paint3_linear_97_585)" />
  <path
    d="M7.16348 16.4066C7.85529 16.2586 8.4661 15.8881 8.88479 15.3625C9.27419 14.8763 9.42962 14.0685 9.27419 13.2961C9.02617 12.0688 8.9716 10.4083 9.27419 9.92826C8.75582 10.2183 8.27051 10.4583 7.95138 10.9731C7.56198 9.41111 7.67442 8.39878 6.14905 6.52252C6.20031 6.96016 6.29373 7.40159 6.29952 7.84907C6.31854 9.24453 5.45623 9.901 5.03045 10.3629C4.20369 11.2609 3.70764 12.2073 3.70764 13.0531C3.70764 13.8322 4.0524 14.0594 4.46577 14.4357C3.8639 14.2956 3.4439 14.1404 3.06029 13.7285C2.91809 14.8453 4.46577 16.1832 5.62323 16.4376C6.18874 16.5588 6.80136 16.4762 7.16348 16.4066Z"
    fill="url(#paint4_linear_97_585)" />
  <path style="mix-blend-mode:multiply" opacity="0.42"
    d="M7.16348 16.4066C7.85529 16.2586 8.4661 15.8881 8.88479 15.3625C9.27419 14.8763 9.42962 14.0685 9.27419 13.2961C9.02617 12.0688 8.9716 10.4083 9.27419 9.92826C8.75582 10.2183 8.27051 10.4583 7.95138 10.9731C7.56198 9.41111 7.67442 8.39878 6.14905 6.52252C6.20031 6.96016 6.29373 7.40159 6.29952 7.84907C6.31854 9.24453 5.45623 9.901 5.03045 10.3629C4.20369 11.2609 3.70764 12.2073 3.70764 13.0531C3.70764 13.8322 4.0524 14.0594 4.46577 14.4357C3.8639 14.2956 3.4439 14.1404 3.06029 13.7285C2.91809 14.8453 4.46577 16.1832 5.62323 16.4376C6.18874 16.5588 6.80136 16.4762 7.16348 16.4066Z"
    fill="url(#paint5_linear_97_585)" />
  <path
    d="M6.90801 16.4301C7.36511 16.3358 7.76984 16.0939 8.0481 15.7486C8.29613 15.4238 8.38459 14.8014 8.24487 14.2911C7.98527 13.337 8.05224 12.3618 8.24487 12.0415C7.91417 12.2353 7.60579 12.3951 7.40406 12.7396C7.15603 11.6962 7.22796 11.0171 6.25569 9.76622C6.28877 10.0585 6.34829 10.3538 6.35243 10.6521C6.364 11.5849 5.81421 12.0226 5.54386 12.3315C5.09168 12.8386 4.8472 13.4744 4.85269 14.129C4.85269 14.6492 5.07261 14.9339 5.33634 15.1853C4.88826 15.151 4.47134 14.9614 4.17061 14.6553C4.0805 15.4011 5.10568 16.2938 5.84314 16.4634C6.2003 16.5421 6.67734 16.4762 6.90801 16.4301Z"
    fill="url(#paint6_linear_97_585)" />
  <defs>
    <linearGradient id="paint0_linear_97_585" x1="6.00188" y1="0.503029" x2="6.00188" y2="16.4997"
      gradientUnits="userSpaceOnUse">
      <stop stop-color="#E65100" />
      <stop offset="1" stop-color="#FF8F00" />
    </linearGradient>
    <linearGradient id="paint1_linear_97_585" x1="6.00188" y1="0.503029" x2="6.00188" y2="16.4997"
      gradientUnits="userSpaceOnUse">
      <stop stop-color="#FF0000" />
      <stop offset="0.04" stop-color="#FF2100" />
      <stop offset="0.1" stop-color="#FF4F00" />
      <stop offset="0.17" stop-color="#FF7900" />
      <stop offset="0.24" stop-color="#FF9D00" />
      <stop offset="0.31" stop-color="#FFBC00" />
      <stop offset="0.4" stop-color="#FFD400" />
      <stop offset="0.49" stop-color="#FFE700" />
      <stop offset="0.6" stop-color="#FFF500" />
      <stop offset="0.73" stop-color="#FFFD00" />
      <stop offset="1" stop-color="#FFFF00" />
    </linearGradient>
    <linearGradient id="paint2_linear_97_585" x1="5.85392" y1="2.78286" x2="5.85392" y2="16.4997"
      gradientUnits="userSpaceOnUse">
      <stop stop-color="#FF8F00" />
      <stop offset="1" stop-color="#FFB300" />
    </linearGradient>
    <linearGradient id="paint3_linear_97_585" x1="5.85392" y1="2.78286" x2="5.85392" y2="16.4997"
      gradientUnits="userSpaceOnUse">
      <stop stop-color="#FF0000" />
      <stop offset="0.04" stop-color="#FF2100" />
      <stop offset="0.1" stop-color="#FF4F00" />
      <stop offset="0.17" stop-color="#FF7900" />
      <stop offset="0.24" stop-color="#FF9D00" />
      <stop offset="0.31" stop-color="#FFBC00" />
      <stop offset="0.4" stop-color="#FFD400" />
      <stop offset="0.49" stop-color="#FFE700" />
      <stop offset="0.6" stop-color="#FFF500" />
      <stop offset="0.73" stop-color="#FFFD00" />
      <stop offset="1" stop-color="#FFFF00" />
    </linearGradient>
    <linearGradient id="paint4_linear_97_585" x1="6.19535" y1="6.52024" x2="6.19535" y2="16.4997"
      gradientUnits="userSpaceOnUse">
      <stop stop-color="#FFB300" />
      <stop offset="1" stop-color="#FFE287" />
    </linearGradient>
    <linearGradient id="paint5_linear_97_585" x1="6.19535" y1="6.52024" x2="6.19535" y2="16.4997"
      gradientUnits="userSpaceOnUse">
      <stop stop-color="#FFD54F" />
      <stop offset="0.05" stop-color="#FFDB43" />
      <stop offset="0.16" stop-color="#FFE82B" />
      <stop offset="0.29" stop-color="#FFF317" />
      <stop offset="0.44" stop-color="#FFFA0A" />
      <stop offset="0.63" stop-color="#FFFE02" />
      <stop offset="1" stop-color="#FFFF00" />
    </linearGradient>
    <linearGradient id="paint6_linear_97_585" x1="6.23833" y1="9.76395" x2="6.23833" y2="16.4997"
      gradientUnits="userSpaceOnUse">
      <stop stop-color="#FFD54F" />
      <stop offset="0.79" stop-color="#FFE7D1" />
      <stop offset="1" stop-color="#FFECF4" />
    </linearGradient>
  </defs>
</svg>