<svg xmlns="http://www.w3.org/2000/svg" width="12" height="13" viewBox="0 0 12 13" fill="none">
    <path
        d="M5.39258 5.888C5.39258 5.72887 5.45579 5.57626 5.56831 5.46374C5.68084 5.35122 5.83345 5.288 5.99258 5.288C6.15171 5.288 6.30432 5.35122 6.41684 5.46374C6.52936 5.57626 6.59258 5.72887 6.59258 5.888V9.488C6.59258 9.64713 6.52936 9.79974 6.41684 9.91227C6.30432 10.0248 6.15171 10.088 5.99258 10.088C5.83345 10.088 5.68084 10.0248 5.56831 9.91227C5.45579 9.79974 5.39258 9.64713 5.39258 9.488V5.888ZM5.99258 2.9306C5.83345 2.9306 5.68084 2.99382 5.56831 3.10634C5.45579 3.21886 5.39258 3.37147 5.39258 3.5306C5.39258 3.68973 5.45579 3.84235 5.56831 3.95487C5.68084 4.06739 5.83345 4.1306 5.99258 4.1306C6.15171 4.1306 6.30432 4.06739 6.41684 3.95487C6.52936 3.84235 6.59258 3.68973 6.59258 3.5306C6.59258 3.37147 6.52936 3.21886 6.41684 3.10634C6.30432 2.99382 6.15171 2.9306 5.99258 2.9306Z"
        fill="#A6B0C3" />
    <path fill-rule="evenodd" clip-rule="evenodd"
        d="M5.99268 0.5C2.67888 0.5 -0.00732422 3.1862 -0.00732422 6.5C-0.00732422 9.8138 2.67888 12.5 5.99268 12.5C9.30648 12.5 11.9927 9.8138 11.9927 6.5C11.9927 3.1862 9.30648 0.5 5.99268 0.5ZM1.19268 6.5C1.19268 7.77304 1.69839 8.99394 2.59856 9.89411C3.49874 10.7943 4.71964 11.3 5.99268 11.3C7.26572 11.3 8.48661 10.7943 9.38679 9.89411C10.287 8.99394 10.7927 7.77304 10.7927 6.5C10.7927 5.22696 10.287 4.00606 9.38679 3.10589C8.48661 2.20571 7.26572 1.7 5.99268 1.7C4.71964 1.7 3.49874 2.20571 2.59856 3.10589C1.69839 4.00606 1.19268 5.22696 1.19268 6.5Z"
        fill="#A6B0C3" />
</svg>