<svg xmlns="http://www.w3.org/2000/svg" width="5" height="9" viewBox="0 0 5 9" fill="none">
    <path
        d="M0.180346 0.583844C0.0648742 0.69935 5.22543e-06 0.85599 5.21829e-06 1.01932C5.21115e-06 1.18264 0.0648741 1.33928 0.180346 1.45479L3.22927 4.50372L0.180346 7.55265C0.0681464 7.66882 0.00606218 7.8244 0.00746598 7.9859C0.00886931 8.1474 0.0736472 8.30189 0.187849 8.41609C0.30205 8.53029 0.456536 8.59507 0.618035 8.59647C0.779534 8.59788 0.935123 8.53579 1.05129 8.42359L4.53569 4.93919C4.65117 4.82368 4.71603 4.66705 4.71603 4.50372C4.71603 4.34039 4.65117 4.18375 4.53569 4.06825L1.05129 0.583844C0.935785 0.468372 0.779145 0.403503 0.615819 0.403503C0.452492 0.403503 0.295853 0.468372 0.180346 0.583844Z"
        fill="#3861FB" />
</svg>