<svg xmlns="http://www.w3.org/2000/svg" width="34" height="16" viewBox="0 0 34 16" fill="none">
    <rect x="11.8127" y="1.84171" width="6.37014" height="6.31659" fill="white" />
    <path
        d="M25.5 0H8.5C6.24566 0 4.08365 0.842855 2.48959 2.34315C0.895533 3.84344 0 5.87827 0 8C0 10.1217 0.895533 12.1566 2.48959 13.6569C4.08365 15.1571 6.24566 16 8.5 16H25.5C27.7543 16 29.9163 15.1571 31.5104 13.6569C33.1045 12.1566 34 10.1217 34 8C34 5.87827 33.1045 3.84344 31.5104 2.34315C29.9163 0.842855 27.7543 0 25.5 0ZM25.5 12.8C24.1474 12.8 22.8502 12.2943 21.8938 11.3941C20.9373 10.4939 20.4 9.27304 20.4 8C20.4 6.72696 20.9373 5.50606 21.8938 4.60589C22.8502 3.70571 24.1474 3.2 25.5 3.2C26.8526 3.2 28.1498 3.70571 29.1062 4.60589C30.0627 5.50606 30.6 6.72696 30.6 8C30.6 9.27304 30.0627 10.4939 29.1062 11.3941C28.1498 12.2943 26.8526 12.8 25.5 12.8Z"
        fill="#3861FB" />
</svg>