<svg width="165" height="12" viewBox="0 0 165 12" fill="none" xmlns="http://www.w3.org/2000/svg">
<path d="M0.53 11.5V2.864L0.36 1.504H2.944L6.786 8.304L10.764 1.504H13.059V11.5H10.815V5.159H10.628L9.965 6.638L7.823 10.48H5.766L3.624 6.638L2.944 5.159H2.774V11.5H0.53ZM17.6359 11.5C16.7745 11.5 16.1512 11.3017 15.7659 10.905C15.3805 10.497 15.1879 9.94167 15.1879 9.239C15.1879 8.50233 15.3862 7.93567 15.7829 7.539C16.1909 7.14233 16.8085 6.944 17.6359 6.944H18.5029C19.3529 6.944 20.1179 6.96667 20.7979 7.012C21.4779 7.05733 22.0389 7.10267 22.4809 7.148V6.026C22.4809 5.924 22.4695 5.822 22.4469 5.72C22.4242 5.60667 22.3562 5.516 22.2429 5.448C22.1295 5.38 21.9369 5.346 21.6649 5.346H20.8149C19.5795 5.346 18.5482 5.36867 17.7209 5.414C16.8935 5.448 16.3325 5.482 16.0379 5.516L15.8509 4.224C15.8509 4.06533 16.2815 3.969 17.1429 3.935C18.0042 3.901 19.4435 3.884 21.4609 3.884H22.3109C22.8775 3.884 23.3139 3.96333 23.6199 4.122C23.9259 4.28067 24.1412 4.479 24.2659 4.717C24.4019 4.955 24.4812 5.19867 24.5039 5.448C24.5379 5.686 24.5549 5.89 24.5549 6.06V11.5H23.1609L22.4979 11.16C22.0219 11.2393 21.4495 11.3187 20.7809 11.398C20.1122 11.466 19.3472 11.5 18.4859 11.5H17.6359ZM18.0779 10.038H21.9709C22.2202 10.038 22.3675 10.0153 22.4129 9.97C22.4582 9.92467 22.4809 9.783 22.4809 9.545V8.236H18.0779C17.7719 8.236 17.5565 8.30967 17.4319 8.457C17.3185 8.60433 17.2619 8.83667 17.2619 9.154C17.2619 9.47133 17.3299 9.698 17.4659 9.834C17.6019 9.97 17.8059 10.038 18.0779 10.038ZM26.5161 11.5V3.884H27.9101L28.5561 4.224C28.8508 4.06533 29.1681 3.94067 29.5081 3.85C29.8481 3.75933 30.2788 3.714 30.8001 3.714C31.6274 3.714 32.2961 3.80467 32.8061 3.986C33.3274 4.16733 33.6731 4.30333 33.8431 4.394L33.2481 5.873C33.1121 5.805 32.8854 5.72 32.5681 5.618C32.2621 5.50467 31.8994 5.40267 31.4801 5.312C31.0608 5.22133 30.6018 5.176 30.1031 5.176H29.9161C29.3721 5.176 29.0151 5.28367 28.8451 5.499C28.6864 5.71433 28.6014 6.07133 28.5901 6.57V11.5H26.5161ZM43.1757 11.67C42.6997 11.67 42.2917 11.6133 41.9517 11.5C41.623 11.3867 41.2717 11.143 40.8977 10.769C40.8637 10.735 40.773 10.6443 40.6257 10.497C40.4784 10.3497 40.314 10.1853 40.1327 10.004C39.9627 9.82267 39.804 9.65833 39.6567 9.511C39.5094 9.36367 39.413 9.26733 39.3677 9.222C39.0844 8.93867 38.8124 8.71767 38.5517 8.559C38.3024 8.40033 37.9907 8.321 37.6167 8.321C37.3674 8.321 37.22 8.34367 37.1747 8.389C37.1294 8.43433 37.1067 8.58733 37.1067 8.848V11.5H35.0327V0.739H37.1067V6.859H37.6507C37.8547 6.859 38.036 6.77967 38.1947 6.621C38.2967 6.519 38.4894 6.315 38.7727 6.009C39.056 5.703 39.3734 5.35733 39.7247 4.972C40.0874 4.58667 40.416 4.22967 40.7107 3.901H43.2097L42.9377 4.428C42.677 4.7 42.3937 4.989 42.0877 5.295C41.7817 5.58967 41.4814 5.87867 41.1867 6.162C40.9034 6.434 40.6427 6.67767 40.4047 6.893C40.1667 7.097 39.9854 7.233 39.8607 7.301C40.2007 7.48233 40.5067 7.692 40.7787 7.93C41.0507 8.15667 41.3454 8.41733 41.6627 8.712C41.98 8.99533 42.3597 9.31833 42.8017 9.681C43.1984 9.99833 43.5667 10.1853 43.9067 10.242C44.2467 10.2873 44.4507 10.31 44.5187 10.31L44.2127 11.5C44.0994 11.534 43.9464 11.568 43.7537 11.602C43.561 11.6473 43.3684 11.67 43.1757 11.67ZM47.6155 11.5C47.0488 11.5 46.6125 11.4263 46.3065 11.279C46.0005 11.1317 45.7795 10.9447 45.6435 10.718C45.5188 10.4913 45.4395 10.2533 45.4055 10.004C45.3828 9.75467 45.3715 9.528 45.3715 9.324V6.06C45.3715 5.89 45.3828 5.686 45.4055 5.448C45.4395 5.19867 45.5188 4.955 45.6435 4.717C45.7795 4.479 46.0005 4.28067 46.3065 4.122C46.6238 3.96333 47.0602 3.884 47.6155 3.884H51.2705C52.0185 3.884 52.6022 3.95767 53.0215 4.105C53.4522 4.241 53.7525 4.46767 53.9225 4.785C54.1038 5.10233 54.1945 5.52733 54.1945 6.06V8.576H51.2195C50.1995 8.576 49.3665 8.55333 48.7205 8.508C48.0858 8.46267 47.6608 8.43433 47.4455 8.423V9.358C47.4342 9.81133 47.7062 10.038 48.2615 10.038H49.1285C49.7405 10.038 50.3355 10.0323 50.9135 10.021C51.5028 9.99833 52.0412 9.97567 52.5285 9.953C53.0158 9.919 53.4068 9.89067 53.7015 9.868L54.3815 10.973C54.3815 11.3243 53.2652 11.5 51.0325 11.5H47.6155ZM47.4455 7.114H52.1205V6.026C52.1205 5.79933 52.0922 5.64067 52.0355 5.55C51.9902 5.45933 51.8428 5.40267 51.5935 5.38C51.3442 5.35733 50.9192 5.346 50.3185 5.346H48.2615C47.7175 5.346 47.4455 5.57267 47.4455 6.026V7.114ZM59.0415 11.5C58.1801 11.5 57.5908 11.3187 57.2735 10.956C56.9561 10.5933 56.7975 10.0493 56.7975 9.324V5.346H55.4035V3.884H56.1175C56.3328 3.884 56.4858 3.85 56.5765 3.782C56.6785 3.714 56.7521 3.578 56.7975 3.374L57.1375 1.555H58.8715V3.884H62.4075V5.346H58.8715V9.341C58.8715 9.62433 58.9395 9.81133 59.0755 9.902C59.2115 9.99267 59.4155 10.038 59.6875 10.038H62.0845L62.2545 11.33C62.0165 11.364 61.6538 11.4037 61.1665 11.449C60.6791 11.483 60.1465 11.5 59.5685 11.5H59.0415ZM64.28 11.5V2.864L64.11 1.487H71.641C72.3663 1.487 72.933 1.58333 73.341 1.776C73.7603 1.96867 74.0663 2.22367 74.259 2.541C74.463 2.847 74.5933 3.17567 74.65 3.527C74.7067 3.87833 74.735 4.21267 74.735 4.53V5.533C74.735 5.79367 74.6953 6.08833 74.616 6.417C74.5367 6.73433 74.3893 7.046 74.174 7.352C73.9587 7.64667 73.647 7.896 73.239 8.1C72.831 8.29267 72.2983 8.389 71.641 8.389H69.907C69.193 8.389 68.5243 8.372 67.901 8.338C67.289 8.304 66.83 8.27567 66.524 8.253V11.5H64.28ZM66.524 6.757H71.148C71.658 6.757 72.0093 6.63233 72.202 6.383C72.3947 6.13367 72.491 5.83333 72.491 5.482V4.411C72.491 4.04833 72.3947 3.74233 72.202 3.493C72.0093 3.24367 71.6637 3.119 71.165 3.119H66.524V6.757ZM76.939 11.5V2.082L76.769 0.722H79.013V11.5H76.939ZM83.2452 11.5C82.3839 11.5 81.7606 11.3017 81.3752 10.905C80.9899 10.497 80.7972 9.94167 80.7972 9.239C80.7972 8.50233 80.9956 7.93567 81.3922 7.539C81.8002 7.14233 82.4179 6.944 83.2452 6.944H84.1122C84.9622 6.944 85.7272 6.96667 86.4072 7.012C87.0872 7.05733 87.6482 7.10267 88.0902 7.148V6.026C88.0902 5.924 88.0789 5.822 88.0562 5.72C88.0336 5.60667 87.9656 5.516 87.8522 5.448C87.7389 5.38 87.5462 5.346 87.2742 5.346H86.4242C85.1889 5.346 84.1576 5.36867 83.3302 5.414C82.5029 5.448 81.9419 5.482 81.6472 5.516L81.4602 4.224C81.4602 4.06533 81.8909 3.969 82.7522 3.935C83.6136 3.901 85.0529 3.884 87.0702 3.884H87.9202C88.4869 3.884 88.9232 3.96333 89.2292 4.122C89.5352 4.28067 89.7506 4.479 89.8752 4.717C90.0112 4.955 90.0906 5.19867 90.1132 5.448C90.1472 5.686 90.1642 5.89 90.1642 6.06V11.5H88.7702L88.1072 11.16C87.6312 11.2393 87.0589 11.3187 86.3902 11.398C85.7216 11.466 84.9566 11.5 84.0952 11.5H83.2452ZM83.6872 10.038H87.5802C87.8296 10.038 87.9769 10.0153 88.0222 9.97C88.0676 9.92467 88.0902 9.783 88.0902 9.545V8.236H83.6872C83.3812 8.236 83.1659 8.30967 83.0412 8.457C82.9279 8.60433 82.8712 8.83667 82.8712 9.154C82.8712 9.47133 82.9392 9.698 83.0752 9.834C83.2112 9.97 83.4152 10.038 83.6872 10.038ZM94.1995 11.5C93.6328 11.5 93.1965 11.4263 92.8905 11.279C92.5845 11.1317 92.3635 10.9447 92.2275 10.718C92.1028 10.4913 92.0235 10.2533 91.9895 10.004C91.9668 9.75467 91.9555 9.528 91.9555 9.324V6.06C91.9555 5.89 91.9668 5.686 91.9895 5.448C92.0235 5.19867 92.1028 4.955 92.2275 4.717C92.3635 4.479 92.5845 4.28067 92.8905 4.122C93.2078 3.96333 93.6441 3.884 94.1995 3.884H96.5625C97.9791 3.884 98.9821 3.92367 99.5715 4.003C100.172 4.071 100.472 4.14467 100.472 4.224L100.132 5.516C99.8151 5.49333 99.4128 5.47067 98.9255 5.448C98.4381 5.414 97.9111 5.39133 97.3445 5.38C96.7891 5.35733 96.2451 5.346 95.7125 5.346H94.8455C94.3015 5.346 94.0295 5.57267 94.0295 6.026V9.358C94.0181 9.81133 94.2901 10.038 94.8455 10.038H95.7125C96.3245 10.038 96.9195 10.0323 97.4975 10.021C98.0868 9.99833 98.6251 9.97567 99.1125 9.953C99.5998 9.919 99.9908 9.89067 100.285 9.868L100.965 10.973C100.965 11.3243 99.8491 11.5 97.6165 11.5H94.1995ZM104.227 11.5C103.66 11.5 103.224 11.4263 102.918 11.279C102.612 11.1317 102.391 10.9447 102.255 10.718C102.13 10.4913 102.051 10.2533 102.017 10.004C101.994 9.75467 101.983 9.528 101.983 9.324V6.06C101.983 5.89 101.994 5.686 102.017 5.448C102.051 5.19867 102.13 4.955 102.255 4.717C102.391 4.479 102.612 4.28067 102.918 4.122C103.235 3.96333 103.671 3.884 104.227 3.884H107.882C108.63 3.884 109.213 3.95767 109.633 4.105C110.063 4.241 110.364 4.46767 110.534 4.785C110.715 5.10233 110.806 5.52733 110.806 6.06V8.576H107.831C106.811 8.576 105.978 8.55333 105.332 8.508C104.697 8.46267 104.272 8.43433 104.057 8.423V9.358C104.045 9.81133 104.317 10.038 104.873 10.038H105.74C106.352 10.038 106.947 10.0323 107.525 10.021C108.114 9.99833 108.652 9.97567 109.14 9.953C109.627 9.919 110.018 9.89067 110.313 9.868L110.993 10.973C110.993 11.3243 109.876 11.5 107.644 11.5H104.227ZM104.057 7.114H108.732V6.026C108.732 5.79933 108.703 5.64067 108.647 5.55C108.601 5.45933 108.454 5.40267 108.205 5.38C107.955 5.35733 107.53 5.346 106.93 5.346H104.873C104.329 5.346 104.057 5.57267 104.057 6.026V7.114ZM111.675 11.5L116.656 1.504H120.005L124.969 11.5H122.351L121.348 9.341H115.262L114.157 11.5H111.675ZM115.874 7.675H120.719L118.39 3.034H118.22L115.874 7.675ZM127.914 11.5C127.154 11.5 126.616 11.4603 126.299 11.381C125.981 11.3017 125.823 11.2223 125.823 11.143L126.333 9.868C126.661 9.902 127.262 9.94167 128.135 9.987C129.019 10.021 130.107 10.038 131.399 10.038H132.249C132.532 10.038 132.708 9.96433 132.776 9.817C132.855 9.65833 132.895 9.44867 132.895 9.188C132.895 8.92733 132.849 8.71767 132.759 8.559C132.679 8.40033 132.509 8.321 132.249 8.321H128.067C127.273 8.321 126.701 8.17367 126.35 7.879C125.998 7.573 125.823 7.11967 125.823 6.519V5.839C125.823 5.68033 125.84 5.49333 125.874 5.278C125.908 5.06267 125.993 4.84733 126.129 4.632C126.265 4.41667 126.486 4.241 126.792 4.105C127.098 3.95767 127.523 3.884 128.067 3.884H132.759C133.439 3.884 133.92 3.92367 134.204 4.003C134.487 4.08233 134.629 4.16167 134.629 4.241L134.459 5.516C134.13 5.482 133.524 5.448 132.64 5.414C131.756 5.36867 130.673 5.346 129.393 5.346H128.543C128.259 5.346 128.078 5.42533 127.999 5.584C127.931 5.73133 127.897 5.907 127.897 6.111C127.897 6.32633 127.931 6.50767 127.999 6.655C128.078 6.791 128.259 6.859 128.543 6.859H132.725C133.495 6.859 134.062 7.01767 134.425 7.335C134.787 7.65233 134.969 8.05467 134.969 8.542V9.545C134.969 9.749 134.952 9.96433 134.918 10.191C134.895 10.4177 134.816 10.633 134.68 10.837C134.544 11.0297 134.323 11.1883 134.017 11.313C133.711 11.4377 133.28 11.5 132.725 11.5H127.914ZM138.754 11.5C137.995 11.5 137.457 11.4603 137.139 11.381C136.822 11.3017 136.663 11.2223 136.663 11.143L137.173 9.868C137.502 9.902 138.103 9.94167 138.975 9.987C139.859 10.021 140.947 10.038 142.239 10.038H143.089C143.373 10.038 143.548 9.96433 143.616 9.817C143.696 9.65833 143.735 9.44867 143.735 9.188C143.735 8.92733 143.69 8.71767 143.599 8.559C143.52 8.40033 143.35 8.321 143.089 8.321H138.907C138.114 8.321 137.542 8.17367 137.19 7.879C136.839 7.573 136.663 7.11967 136.663 6.519V5.839C136.663 5.68033 136.68 5.49333 136.714 5.278C136.748 5.06267 136.833 4.84733 136.969 4.632C137.105 4.41667 137.326 4.241 137.632 4.105C137.938 3.95767 138.363 3.884 138.907 3.884H143.599C144.279 3.884 144.761 3.92367 145.044 4.003C145.328 4.08233 145.469 4.16167 145.469 4.241L145.299 5.516C144.971 5.482 144.364 5.448 143.48 5.414C142.596 5.36867 141.514 5.346 140.233 5.346H139.383C139.1 5.346 138.919 5.42533 138.839 5.584C138.771 5.73133 138.737 5.907 138.737 6.111C138.737 6.32633 138.771 6.50767 138.839 6.655C138.919 6.791 139.1 6.859 139.383 6.859H143.565C144.336 6.859 144.903 7.01767 145.265 7.335C145.628 7.65233 145.809 8.05467 145.809 8.542V9.545C145.809 9.749 145.792 9.96433 145.758 10.191C145.736 10.4177 145.656 10.633 145.52 10.837C145.384 11.0297 145.163 11.1883 144.857 11.313C144.551 11.4377 144.121 11.5 143.565 11.5H138.754ZM149.748 11.5C149.182 11.5 148.745 11.4263 148.439 11.279C148.133 11.1317 147.912 10.9447 147.776 10.718C147.652 10.4913 147.572 10.2533 147.538 10.004C147.516 9.75467 147.504 9.528 147.504 9.324V6.06C147.504 5.89 147.516 5.686 147.538 5.448C147.572 5.19867 147.652 4.955 147.776 4.717C147.912 4.479 148.133 4.28067 148.439 4.122C148.757 3.96333 149.193 3.884 149.748 3.884H153.403C154.151 3.884 154.735 3.95767 155.154 4.105C155.585 4.241 155.885 4.46767 156.055 4.785C156.237 5.10233 156.327 5.52733 156.327 6.06V8.576H153.352C152.332 8.576 151.499 8.55333 150.853 8.508C150.219 8.46267 149.794 8.43433 149.578 8.423V9.358C149.567 9.81133 149.839 10.038 150.394 10.038H151.261C151.873 10.038 152.468 10.0323 153.046 10.021C153.636 9.99833 154.174 9.97567 154.661 9.953C155.149 9.919 155.54 9.89067 155.834 9.868L156.514 10.973C156.514 11.3243 155.398 11.5 153.165 11.5H149.748ZM149.578 7.114H154.253V6.026C154.253 5.79933 154.225 5.64067 154.168 5.55C154.123 5.45933 153.976 5.40267 153.726 5.38C153.477 5.35733 153.052 5.346 152.451 5.346H150.394C149.85 5.346 149.578 5.57267 149.578 6.026V7.114ZM161.174 11.5C160.313 11.5 159.724 11.3187 159.406 10.956C159.089 10.5933 158.93 10.0493 158.93 9.324V5.346H157.536V3.884H158.25C158.466 3.884 158.619 3.85 158.709 3.782C158.811 3.714 158.885 3.578 158.93 3.374L159.27 1.555H161.004V3.884H164.54V5.346H161.004V9.341C161.004 9.62433 161.072 9.81133 161.208 9.902C161.344 9.99267 161.548 10.038 161.82 10.038H164.217L164.387 11.33C164.149 11.364 163.787 11.4037 163.299 11.449C162.812 11.483 162.279 11.5 161.701 11.5H161.174Z" fill="black"/>
</svg>
