<svg xmlns="http://www.w3.org/2000/svg" width="12" height="12" viewBox="0 0 12 12" fill="none">
    <g clip-path="url(#clip0_96_213)">
      <path d="M6 12C9.3137 12 12 9.3137 12 6C12 2.68629 9.3137 0 6 0C2.68629 0 0 2.68629 0 6C0 9.3137 2.68629 12 6 12Z" fill="#16C784"/>
      <path d="M5.7379 9.5H6.27735L6.2799 8.87385C7.3715 8.78905 7.99745 8.14375 8 7.22775C7.99745 6.25705 7.2519 5.81405 6.4682 5.61445L6.30025 5.56795L6.31045 4.00664C6.71755 4.0832 6.97965 4.34571 7.02035 4.73946H7.92875C7.9135 3.86992 7.27735 3.23554 6.3155 3.13711L6.31805 2.5H5.77865L5.7761 3.13711C4.82189 3.24101 4.13486 3.86992 4.1374 4.775C4.1374 5.5789 4.66921 6.041 5.5267 6.2789L5.75575 6.3418L5.74555 7.9961C5.2901 7.91955 4.96183 7.6406 4.92875 7.1457H4C4.03562 8.1711 4.69211 8.78085 5.74045 8.87385L5.7379 9.5ZM6.285 7.9961L6.29515 6.4949C6.75825 6.63985 7.05345 6.83125 7.056 7.21955C7.05345 7.6242 6.75065 7.91405 6.285 7.9961ZM5.7608 5.4203C5.40965 5.3 5.08905 5.1004 5.09415 4.71211C5.0967 4.35938 5.3435 4.08594 5.771 4.00664L5.7608 5.4203Z" fill="white"/>
    </g>
    <defs>
      <clipPath id="clip0_96_213">
        <rect width="12" height="12" fill="white"/>
      </clipPath>
    </defs>
  </svg>