<svg width="18" height="18" viewBox="0 0 18 18" fill="none" xmlns="http://www.w3.org/2000/svg">
    <path
        d="M18 14.5714V15.4286H0V14.5714L2 12.8571V7.71429C2 5.05714 4.03 2.71714 7 1.96286V1.71429C7 1.25963 7.21071 0.823594 7.58579 0.502103C7.96086 0.180612 8.46957 0 9 0C9.53043 0 10.0391 0.180612 10.4142 0.502103C10.7893 0.823594 11 1.25963 11 1.71429V1.96286C13.97 2.71714 16 5.05714 16 7.71429V12.8571L18 14.5714ZM11 16.2857C11 16.7404 10.7893 17.1764 10.4142 17.4979C10.0391 17.8194 9.53043 18 9 18C8.46957 18 7.96086 17.8194 7.58579 17.4979C7.21071 17.1764 7 16.7404 7 16.2857"
        fill="black" />
</svg>