<svg width="20" height="20" viewBox="0 0 20 20" fill="none" xmlns="http://www.w3.org/2000/svg">
<g id="diamond-icon 1" clip-path="url(#clip0_58_28)">
<path id="Vector" d="M6.94537 5.40139L13.612 6.23741L17.3848 3.17203L13.4191 1.5L6.40946 1.67149L2.78674 3.60075L6.94537 5.40139Z" fill="#7CFFF9"/>
<path id="Vector_2" d="M6.94534 5.4014L5.27332 10.0531L14.9196 10.3746L13.1404 5.4014H6.94534Z" fill="#00A5EC"/>
<path id="Vector_3" d="M13.1405 5.40139L17.3848 3.17203L20.0001 5.95874L14.6838 10.1173L13.1405 5.40139Z" fill="#00DBFF"/>
<path id="Vector_4" d="M2.78671 3.60074L0 6.88048L5.27331 10.0531L6.94533 5.40138L2.78671 3.60074Z" fill="#00DCFF"/>
<path id="Vector_5" d="M5.27332 10.0531L10.3108 18.7347L14.6838 10.1173L5.27332 10.0531Z" fill="#105BC4"/>
<path id="Vector_6" d="M0 6.88049L10.3108 18.7348L5.27331 10.0531L0 6.88049Z" fill="#2181E5"/>
<path id="Vector_7" d="M20.0001 5.95874L10.3109 18.7348L14.6839 10.1173L20.0001 5.95874Z" fill="#00AFFF"/>
<path id="Vector_8" d="M2.78674 3.60075L17.3848 3.17203L13.4191 1.5L6.40946 1.67149L2.78674 3.60075Z" fill="#B6FFF9"/>
<path id="Vector_9" d="M5.27332 10.0531C5.27332 10.0531 5.63773 7.71651 6.94535 5.4014C6.6238 7.3521 5.27332 10.0531 5.27332 10.0531Z" fill="#7CFFF9"/>
<path id="Vector_10" d="M13.1404 5.4014C12.9475 6.62326 14.4481 9.8601 14.6838 10.1173C14.6196 8.50968 13.1404 5.4014 13.1404 5.4014Z" fill="#7CFFF9"/>
</g>
<defs>
<clipPath id="clip0_58_28">
<rect width="20" height="20" fill="white"/>
</clipPath>
</defs>
</svg>
