<svg width="22" height="22" viewBox="0 0 22 22" fill="none" xmlns="http://www.w3.org/2000/svg">
<g id="Frame 14">
<path id="Vector" d="M22 17.8095V18.8571H0V17.8095L2.44444 15.7143V9.42857C2.44444 6.18095 4.92556 3.32095 8.55556 2.39905V2.09524C8.55556 1.53955 8.8131 1.00661 9.27152 0.613681C9.72994 0.220748 10.3517 0 11 0C11.6483 0 12.2701 0.220748 12.7285 0.613681C13.1869 1.00661 13.4444 1.53955 13.4444 2.09524V2.39905C17.0744 3.32095 19.5556 6.18095 19.5556 9.42857V15.7143L22 17.8095ZM13.4444 19.9048C13.4444 20.4605 13.1869 20.9934 12.7285 21.3863C12.2701 21.7793 11.6483 22 11 22C10.3517 22 9.72994 21.7793 9.27152 21.3863C8.8131 20.9934 8.55556 20.4605 8.55556 19.9048" fill="black"/>
</g>
</svg>
