<svg xmlns="http://www.w3.org/2000/svg" width="8" height="14" viewBox="0 0 8 14" fill="none">
    <path fill-rule="evenodd" clip-rule="evenodd"
        d="M0.466737 7.71931C0.279266 7.53178 0.17395 7.27747 0.17395 7.01231C0.17395 6.74714 0.279266 6.49283 0.466737 6.30531L6.12374 0.648306C6.21598 0.552796 6.32633 0.476613 6.44833 0.424204C6.57034 0.371795 6.70156 0.344209 6.83434 0.343055C6.96711 0.341902 7.09879 0.367203 7.22169 0.417484C7.34459 0.467765 7.45624 0.542018 7.55013 0.635911C7.64402 0.729804 7.71828 0.841455 7.76856 0.964352C7.81884 1.08725 7.84414 1.21893 7.84299 1.35171C7.84183 1.48449 7.81425 1.61571 7.76184 1.73771C7.70943 1.85971 7.63325 1.97006 7.53774 2.06231L2.58774 7.01231L7.53774 11.9623C7.71989 12.1509 7.82069 12.4035 7.81841 12.6657C7.81613 12.9279 7.71096 13.1787 7.52556 13.3641C7.34015 13.5495 7.08933 13.6547 6.82714 13.657C6.56494 13.6593 6.31234 13.5585 6.12374 13.3763L0.466737 7.71931Z"
        fill="#808A9D" />
</svg>