<svg xmlns="http://www.w3.org/2000/svg" width="8" height="17" viewBox="0 0 8 17" fill="none">
    <g clip-path="url(#clip0_185_474)">
        <path
            d="M3.11945 4.35654C0.95648 6.58775 -0.270649 8.77892 0.0532971 11.8849C0.607205 17.2345 7.17611 17.2713 7.90199 13.2223C8.65653 9.01254 4.93315 9.95358 5.43573 5.49577C5.82567 2.04396 3.67536 0.740679 3.67536 0.740679C3.67536 0.740679 4.46056 2.97385 3.11945 4.35654Z"
            fill="#FC0001" />
        <path
            d="M4.47789 2.37469C4.8305 6.03977 0.352576 6.23795 0.302584 10.745C0.258591 14.689 2.71751 15.6983 4.77984 15.2527C6.84216 14.8071 8.55321 13.3706 6.18827 9.75472C4.8205 7.6633 5.08179 5.94068 5.08179 5.94068C5.08179 5.94068 3.33741 7.77354 4.24326 9.21004C5.14911 10.6465 2.23093 10.6794 3.13611 8.15285C4.0413 5.62634 4.73984 5.96036 4.94781 4.48777C5.11512 3.29932 4.47789 2.37469 4.47789 2.37469Z"
            fill="#FB6D01" />
        <path
            d="M4.88051 15.7973C1.3591 15.4509 0.131306 13.4067 0.20196 11.2903C0.30261 8.27163 3.26812 6.28717 3.26812 6.28717C3.26812 6.28717 1.5604 8.16991 2.51558 10.0002C3.47075 11.8304 5.43309 12.3777 5.43309 12.3777C5.00618 11.6198 4.78122 10.7677 4.7792 9.90106C4.78522 9.48657 4.81884 9.07291 4.87985 8.66275C5.06794 9.45468 5.50874 10.1665 6.13764 10.6938C7.64672 11.9321 7.64672 13.2695 7.19413 14.3097C6.74154 15.3498 4.88051 15.7973 4.88051 15.7973Z"
            fill="#EFA204" />
        <path
            d="M2.6669 8.31822C2.63291 8.37531 2.60025 8.43241 2.56759 8.48884C0.91453 11.3763 1.13383 13.492 2.4656 14.6575C3.82404 15.8459 5.56775 17.0514 6.4736 15.1168C6.96019 14.0787 5.94036 13.8129 4.17598 12.3764C2.41161 10.9399 2.6669 8.31822 2.6669 8.31822Z"
            fill="#FACF67" />
        <path
            d="M7.04345 7.80635C5.43372 9.65563 5.95363 10.6131 6.49021 11.8022C7.02679 12.9913 6.92613 13.5517 6.92613 13.5517C6.92613 13.5517 7.84198 12.5405 7.17809 11.058C6.10494 8.66472 7.04345 7.80635 7.04345 7.80635Z"
            fill="#FCE8B3" />
        <path
            d="M1.27513 9.21267C0.503927 11.4911 3.08616 13.0097 4.39394 13.4723C5.70173 13.935 5.53442 15.2218 5.53442 15.2218C5.53442 15.2218 6.03767 14.1988 5.70239 13.3397C5.36712 12.4807 5.19914 12.5805 5.19914 12.5805C5.19914 12.5805 6.40828 12.6638 6.72489 14.017C6.97685 15.0899 6.30629 15.8164 5.63507 16.0808C4.96385 16.3453 3.15348 16.6419 1.47643 14.4626C-0.200625 12.2832 1.27513 9.21267 1.27513 9.21267Z"
            fill="#FCE8B3" />
        <path
            d="M1.57704 4.32305C2.59954 5.61059 1.99631 7.34175 1.66103 7.72368C1.32575 8.1056 1.56038 6.65073 1.76101 6.00696C1.96164 5.36319 1.57704 4.32305 1.57704 4.32305Z"
            fill="#FCE8B3" />
    </g>
    <defs>
        <clipPath id="clip0_185_474">
            <rect width="8" height="15.52" fill="white" transform="translate(0 0.74)" />
        </clipPath>
    </defs>
</svg>