<svg xmlns="http://www.w3.org/2000/svg" width="7" height="5" viewBox="0 0 7 5" fill="none">
    <path fill-rule="evenodd" clip-rule="evenodd"
        d="M3.87817 4.36212C3.77958 4.46068 3.64587 4.51606 3.50646 4.51606C3.36705 4.51606 3.23334 4.46068 3.13475 4.36212L0.160509 1.38788C0.110293 1.33938 0.0702397 1.28137 0.042685 1.21722C0.0151303 1.15308 0.000626484 1.08409 1.98509e-05 1.01428C-0.000586782 0.944466 0.012716 0.875234 0.0391518 0.810619C0.0655876 0.746005 0.104627 0.687302 0.153992 0.637937C0.203358 0.588572 0.26206 0.549532 0.326674 0.523096C0.391288 0.496661 0.460521 0.483358 0.530331 0.483965C0.600141 0.484571 0.669132 0.499075 0.733277 0.52663C0.797422 0.554185 0.855437 0.594238 0.903937 0.644454L3.50646 3.24698L6.10899 0.644454C6.20815 0.548682 6.34095 0.495688 6.47881 0.496886C6.61666 0.498084 6.74853 0.553378 6.84601 0.650858C6.94349 0.748339 6.99878 0.880207 6.99998 1.01806C7.00118 1.15591 6.94818 1.28872 6.85241 1.38788L3.87817 4.36212Z"
        fill="#58667E" />
</svg>