<svg xmlns="http://www.w3.org/2000/svg" width="16" height="17" viewBox="0 0 16 17" fill="none">
    <path
        d="M8 0.5C10.1217 0.5 12.1566 1.34285 13.6569 2.84315C15.1571 4.34344 16 6.37827 16 8.5C16 10.6217 15.1571 12.6566 13.6569 14.1569C12.1566 15.6571 10.1217 16.5 8 16.5C5.87827 16.5 3.84344 15.6571 2.34315 14.1569C0.842854 12.6566 0 10.6217 0 8.5C0 6.37827 0.842854 4.34344 2.34315 2.84315C3.84344 1.34285 5.87827 0.5 8 0.5ZM9.19991 5.41165C9.79416 5.41165 10.2764 4.99911 10.2764 4.38772C10.2764 3.77634 9.79301 3.3638 9.19991 3.3638C8.60567 3.3638 8.12571 3.77634 8.12571 4.38772C8.12571 4.99911 8.60567 5.41165 9.19991 5.41165ZM9.40904 11.842C9.40904 11.7198 9.45132 11.4021 9.42733 11.2215L8.48797 12.3026C8.29369 12.5071 8.05028 12.6488 7.936 12.6111C7.88416 12.5921 7.84083 12.5551 7.81381 12.5069C7.78678 12.4587 7.77784 12.4025 7.78859 12.3483L9.35419 7.40236C9.48218 6.77498 9.13021 6.20245 8.38397 6.12931C7.5966 6.12931 6.43783 6.92811 5.73273 7.94176C5.73273 8.06289 5.70988 8.36458 5.73388 8.54514L6.67209 7.46293C6.86637 7.26066 7.09264 7.11781 7.20691 7.15667C7.26322 7.17688 7.30935 7.21835 7.33542 7.27219C7.36148 7.32604 7.3654 7.38795 7.34633 7.44465L5.79444 12.3666C5.61503 12.9425 5.95443 13.5071 6.77723 13.6351C7.98857 13.6351 8.70395 12.8557 9.41018 11.842H9.40904Z"
        fill="#808A9D" />
</svg>