<svg width="36" height="36" viewBox="0 0 49 48" fill="none" xmlns="http://www.w3.org/2000/svg">
    <rect x="0.428589" width="48" height="48" rx="8" fill="black" />
    <path fill-rule="evenodd" clip-rule="evenodd"
        d="M19.9668 13.6919H14.1206L14.1206 19.538L19.9668 19.538L19.9668 13.6919ZM14.1206 11.6919C13.016 11.6919 12.1206 12.5873 12.1206 13.6919V19.538C12.1206 20.6426 13.016 21.538 14.1206 21.538H19.9668C21.0713 21.538 21.9668 20.6426 21.9668 19.538V13.6919C21.9668 12.5873 21.0713 11.6919 19.9668 11.6919H14.1206ZM29.3514 26.6919C29.3514 27.2442 29.7991 27.6919 30.3514 27.6919H30.8129C31.3652 27.6919 31.8129 27.2442 31.8129 26.6919V21.3073C31.8129 20.755 31.3652 20.3073 30.8129 20.3073H30.3514C29.7991 20.3073 29.3514 20.755 29.3514 21.3073V26.6919ZM34.736 13.6919H31.3514V17.0765H34.736V13.6919ZM31.3514 11.6919C30.2468 11.6919 29.3514 12.5873 29.3514 13.6919V17.0765C29.3514 18.1811 30.2468 19.0765 31.3514 19.0765H34.736C35.8406 19.0765 36.736 18.1811 36.736 17.0765V13.6919C36.736 12.5873 35.8406 11.6919 34.736 11.6919H31.3514ZM17.5052 30.9227H14.1206L14.1206 34.3073H17.5052V30.9227ZM14.1206 28.9227C13.016 28.9227 12.1206 29.8181 12.1206 30.9227V34.3073C12.1206 35.4118 13.016 36.3073 14.1206 36.3073H17.5052C18.6098 36.3073 19.5052 35.4118 19.5052 34.3073V30.9227C19.5052 29.8181 18.6098 28.9227 17.5052 28.9227H14.1206Z"
        fill="white" />
    <rect x="23.1975" y="11.6919" width="4.92308" height="2.46154" rx="1" fill="white" />
    <rect x="12.1206" y="22.769" width="9.84615" height="2.46154" rx="1" fill="white" />
    <rect x="23.1975" y="17.8457" width="4.92308" height="2.46154" rx="1" fill="white" />
    <rect x="24.4283" y="21.5381" width="3.69231" height="2.46154" rx="1" fill="white" />
    <rect x="23.1975" y="25.2305" width="4.92308" height="2.46154" rx="1" fill="white" />
    <rect x="31.8129" y="33.8457" width="4.92308" height="2.46154" rx="1" fill="white" />
    <rect width="2.46154" height="4.92308" rx="1" transform="matrix(1 0 0 -1 19.5052 27.6919)"
        fill="white" />
    <rect width="2.46154" height="3.69231" rx="1" transform="matrix(1 0 0 -1 20.736 36.3076)"
        fill="white" />
    <rect width="2.46154" height="2.46154" rx="1" transform="matrix(1 0 0 -1 20.736 31.3843)"
        fill="white" />
    <rect width="2.46154" height="3.69231" rx="1" transform="matrix(1 0 0 -1 24.4283 32.6152)"
        fill="white" />
    <rect width="2.46154" height="6.15385" rx="1" transform="matrix(1 0 0 -1 28.1206 36.3076)"
        fill="white" />
    <rect width="2.46154" height="4.92308" rx="1" transform="matrix(1 0 0 -1 23.1975 20.3076)"
        fill="white" />
    <rect width="2.46154" height="3.69231" rx="1" transform="matrix(1 0 0 -1 34.2744 28.9229)"
        fill="white" />
    <rect width="2.46154" height="4.92308" rx="1" transform="matrix(1 0 0 -1 14.5822 27.6919)"
        fill="white" />
    <rect x="29.3513" y="20.3076" width="7.38461" height="2.46154" rx="1" fill="white" />
    <rect x="28.1206" y="30.1533" width="8.61539" height="2.46154" rx="1" fill="white" />
    <rect x="20.736" y="33.8457" width="9.84615" height="2.46154" rx="1" fill="white" />
</svg>