<svg xmlns="http://www.w3.org/2000/svg" width="100" height="28" viewBox="0 0 100 28" fill="none">
    <mask id="mask0_223_649" style="mask-type:luminance" maskUnits="userSpaceOnUse" x="0" y="0"
        width="100" height="28">
        <path d="M99.8521 0H0V28H99.8521V0Z" fill="white" />
    </mask>
    <g mask="url(#mask0_223_649)">
        <path
            d="M99.1503 24.698C99.1503 26.1783 97.887 27.3853 96.3107 27.3853H3.48668C1.92257 27.3853 0.647217 26.1897 0.647217 24.698V3.31374C0.647217 1.83346 1.92257 0.626465 3.48668 0.626465H96.3107C97.8752 0.626465 99.1503 1.83346 99.1503 3.31374V24.698Z"
            fill="white" />
        <path
            d="M96.3254 28H3.50121C1.57615 28 0 26.5197 0 24.6978V3.31354C0 1.49167 1.56412 0 3.50121 0H96.3254C98.2503 0 99.8266 1.48028 99.8266 3.31354V24.6978C99.8148 26.5197 98.2503 28 96.3254 28Z"
            fill="black" />
        <path
            d="M99.1503 24.698C99.1503 26.1783 97.887 27.3853 96.3107 27.3853H3.48668C1.92257 27.3853 0.647217 26.1897 0.647217 24.698V3.31374C0.647217 1.83346 1.92257 0.626465 3.48668 0.626465H96.3107C97.8752 0.626465 99.1503 1.83346 99.1503 3.31374V24.698Z"
            fill="black" />
        <path
            d="M22.2843 13.8578C22.2603 11.6033 24.2335 10.4987 24.3297 10.4532C23.2108 8.91601 21.4782 8.69968 20.8646 8.68826C19.4088 8.54019 18.0011 9.5081 17.2551 9.5081C16.4971 9.5081 15.3541 8.69968 14.1269 8.72242C12.5387 8.74521 11.0589 9.61063 10.2527 10.9656C8.58028 13.7098 9.83164 17.7521 11.4318 19.9725C12.238 21.0657 13.1764 22.2727 14.4037 22.2271C15.6068 22.1816 16.0519 21.4984 17.5077 21.4984C18.9396 21.4984 19.3726 22.2271 20.624 22.1929C21.9113 22.1701 22.7295 21.0998 23.4995 20.0067C24.426 18.7655 24.799 17.5358 24.8109 17.4675C24.7869 17.4561 22.3084 16.5565 22.2843 13.8578Z"
            fill="white" />
        <path
            d="M19.9143 7.21916C20.564 6.45627 21.0091 5.40865 20.8768 4.36108C19.9384 4.39524 18.7713 4.97597 18.0975 5.72748C17.4959 6.38789 16.9666 7.46964 17.1109 8.48308C18.1697 8.5514 19.2405 7.97068 19.9143 7.21916Z"
            fill="white" />
        <path
            d="M39.7032 22.0563H38.0187L37.1043 19.3235H33.8919L33.0135 22.0563H31.3772L34.5415 12.7419H36.5027L39.7032 22.0563ZM36.8155 18.1734L35.9854 15.7367C35.9012 15.4862 35.7327 14.9054 35.4921 13.9831H35.468C35.3718 14.3817 35.2154 14.9623 34.9987 15.7367L34.1806 18.1734H36.8155Z"
            fill="white" />
        <path
            d="M47.8379 18.6173C47.8379 19.756 47.513 20.6669 46.8512 21.3273C46.2617 21.9195 45.5278 22.2155 44.6615 22.2155C43.723 22.2155 43.0493 21.8966 42.6402 21.259V24.7889H41.0641V17.5583C41.0641 16.841 41.04 16.1008 41.0039 15.3493H42.3875L42.4717 16.4197H42.4958C43.0252 15.6226 43.8193 15.2126 44.8901 15.2126C45.7324 15.2126 46.4301 15.5201 46.9836 16.1578C47.5491 16.7726 47.8379 17.5925 47.8379 18.6173ZM46.2256 18.6742C46.2256 18.0251 46.0692 17.4786 45.7564 17.0573C45.4195 16.6132 44.9623 16.3969 44.3847 16.3969C43.9998 16.3969 43.6388 16.5221 43.326 16.7613C43.0132 17.0118 42.7966 17.3306 42.7003 17.7178C42.6522 17.8999 42.6282 18.048 42.6282 18.1732V19.2891C42.6282 19.7788 42.7846 20.1886 43.0974 20.5302C43.4102 20.8718 43.8313 21.0313 44.3366 21.0313C44.9262 21.0313 45.3954 20.8149 45.7203 20.3823C46.0572 19.9496 46.2256 19.3802 46.2256 18.6742Z"
            fill="white" />
        <path
            d="M55.9971 18.6173C55.9971 19.756 55.6722 20.6669 55.0108 21.3273C54.4212 21.9195 53.6874 22.2155 52.821 22.2155C51.8825 22.2155 51.2087 21.8966 50.7997 21.259V24.7889H49.2235V17.5583C49.2235 16.841 49.1995 16.1008 49.1633 15.3493H50.547L50.6312 16.4197H50.6553C51.1847 15.6226 51.9788 15.2126 53.0497 15.2126C53.8918 15.2126 54.5897 15.5201 55.1429 16.1578C55.7208 16.7726 55.9971 17.5925 55.9971 18.6173ZM54.3969 18.6742C54.3969 18.0251 54.2405 17.4786 53.9277 17.0573C53.5912 16.6132 53.1337 16.3969 52.5563 16.3969C52.1713 16.3969 51.8103 16.5221 51.4975 16.7613C51.1847 17.0118 50.9801 17.3306 50.8718 17.7178C50.8237 17.8999 50.7997 18.048 50.7997 18.1732V19.2891C50.7997 19.7788 50.9561 20.1886 51.2689 20.5302C51.5817 20.8605 52.0029 21.0313 52.5082 21.0313C53.0977 21.0313 53.5669 20.8149 53.8918 20.3823C54.2288 19.9496 54.3969 19.3802 54.3969 18.6742Z"
            fill="white" />
        <path
            d="M65.1273 19.4486C65.1273 20.2456 64.8392 20.8833 64.2492 21.3843C63.6119 21.9309 62.7096 22.2042 61.5664 22.2042C60.5072 22.2042 59.6534 22.0106 59.0154 21.6234L59.377 20.3823C60.0622 20.7694 60.8321 20.963 61.6504 20.963C62.2404 20.963 62.7096 20.8378 63.0344 20.5872C63.3593 20.3367 63.5279 19.9951 63.5279 19.5738C63.5279 19.1981 63.3954 18.8792 63.1185 18.6174C62.8415 18.3554 62.3966 18.1163 61.7587 17.9C60.038 17.2965 59.1723 16.397 59.1723 15.2355C59.1723 14.4726 59.4729 13.8463 60.0865 13.3567C60.7001 12.867 61.5066 12.6279 62.5048 12.6279C63.3954 12.6279 64.1534 12.7759 64.7427 13.072L64.3457 14.2904C63.7924 14.0057 63.1546 13.8577 62.4569 13.8577C61.9031 13.8577 61.4581 13.9829 61.1569 14.2448C60.8924 14.4726 60.7605 14.7572 60.7605 15.0874C60.7605 15.4518 60.9167 15.7593 61.2173 15.9984C61.4824 16.2147 61.951 16.4538 62.6492 16.7157C63.4912 17.0346 64.1167 17.4103 64.5143 17.843C64.935 18.2643 65.1273 18.7995 65.1273 19.4486Z"
            fill="white" />
        <path
            d="M70.3563 16.4652H68.6113V19.7218C68.6113 20.553 68.9119 20.9629 69.5261 20.9629C69.8024 20.9629 70.0432 20.9402 70.2237 20.8946L70.2722 22.0332C69.9586 22.1471 69.5498 22.204 69.045 22.204C68.419 22.204 67.9379 22.0219 67.5888 21.6689C67.2403 21.3045 67.0592 20.701 67.0592 19.8584V16.4652H66.0249V15.3493H67.0592V14.1195L68.6113 13.6754V15.3493H70.3563C70.3563 15.3379 70.3563 16.4652 70.3563 16.4652Z"
            fill="white" />
        <path
            d="M78.191 18.6514C78.191 19.6877 77.878 20.5302 77.2526 21.1907C76.6028 21.8739 75.7366 22.2155 74.6537 22.2155C73.607 22.2155 72.7768 21.8853 72.1632 21.2363C71.5496 20.5872 71.2366 19.756 71.2366 18.7653C71.2366 17.7291 71.5614 16.8751 72.1993 16.2033C72.8372 15.5429 73.7034 15.2126 74.7744 15.2126C75.8206 15.2126 76.6508 15.5429 77.2886 16.1919C77.878 16.8182 78.191 17.638 78.191 18.6514ZM76.5549 18.6856C76.5549 18.0707 76.4105 17.5469 76.1336 17.1029C75.8088 16.5677 75.3277 16.3058 74.7141 16.3058C74.0762 16.3058 73.5952 16.5677 73.2703 17.1029C72.9934 17.5469 72.849 18.0821 72.849 18.7198C72.849 19.3346 72.9934 19.8698 73.2703 20.3025C73.607 20.8377 74.0886 21.0996 74.7017 21.0996C75.3034 21.0996 75.7727 20.8263 76.1212 20.2912C76.3981 19.8243 76.5549 19.3005 76.5549 18.6856Z"
            fill="white" />
        <path
            d="M83.3196 16.659C83.1628 16.6363 82.9947 16.6135 82.8261 16.6135C82.2729 16.6135 81.8397 16.8071 81.5391 17.2057C81.2746 17.5586 81.1415 18.0027 81.1415 18.5379V22.0678H79.5658V17.4675C79.5658 16.6933 79.5533 15.9872 79.5178 15.3496H80.8894L80.9492 16.6363H80.9977C81.1658 16.1922 81.4308 15.8393 81.7918 15.5659C82.1403 15.3268 82.5255 15.2015 82.9344 15.2015C83.0794 15.2015 83.2113 15.213 83.3314 15.2243L83.3196 16.659Z"
            fill="white" />
        <path
            d="M90.3699 18.3784C90.3699 18.6403 90.3457 18.8681 90.3096 19.0502H85.5812C85.593 19.7106 85.8338 20.223 86.267 20.5761C86.664 20.8835 87.1812 21.0429 87.819 21.0429C88.5173 21.0429 89.1545 20.9404 89.732 20.724L89.9847 21.7602C89.3107 22.0335 88.5173 22.1702 87.6025 22.1702C86.5078 22.1702 85.6415 21.8627 85.0036 21.2478C84.3782 20.633 84.0652 19.8131 84.0652 18.777C84.0652 17.7635 84.3539 16.9209 84.9433 16.2491C85.5569 15.5317 86.3871 15.1674 87.422 15.1674C88.4445 15.1674 89.2149 15.5317 89.7445 16.2491C90.1652 16.8412 90.3699 17.5471 90.3699 18.3784ZM88.8658 17.9913C88.8776 17.5471 88.7693 17.1714 88.5652 16.8412C88.2883 16.4199 87.867 16.2149 87.3137 16.2149C86.7959 16.2149 86.3752 16.4199 86.0622 16.8184C85.7977 17.1373 85.6415 17.5244 85.593 17.9798L88.8658 17.9913Z"
            fill="white" />
        <path
            d="M36.0579 9.40558H35.2277L34.7705 8.06197H33.1943L32.7612 9.40558H31.9551L33.5071 4.82812H34.4696L36.0579 9.40558ZM34.6501 7.50398L34.2411 6.30838C34.1929 6.18317 34.1208 5.89852 34.0005 5.443H33.9884C33.9403 5.63661 33.8681 5.92126 33.7598 6.30838L33.3628 7.50398H34.6501Z"
            fill="white" />
        <path
            d="M39.9576 6.10315L38.6342 9.40536H37.8762L36.6008 6.10315H37.431L38.0326 7.84537C38.1289 8.14144 38.2131 8.41472 38.2853 8.67663H38.3093C38.3695 8.43745 38.4537 8.16417 38.562 7.84537L39.1515 6.10315C39.1395 6.10315 39.9576 6.10315 39.9576 6.10315Z"
            fill="white" />
        <path
            d="M42.7715 9.40542L42.7114 9.02966H42.6872C42.4467 9.33715 42.1098 9.48516 41.6646 9.48516C41.039 9.48516 40.5938 9.07524 40.5938 8.51726C40.5938 7.69742 41.3397 7.27613 42.6271 7.27613V7.21918C42.6271 6.78647 42.3865 6.57014 41.9052 6.57014C41.5563 6.57014 41.2555 6.64988 40.9908 6.82068L40.8344 6.34244C41.1593 6.14885 41.5563 6.05774 42.0376 6.05774C42.952 6.05774 43.4091 6.51324 43.4091 7.4242V8.64253C43.4091 8.97271 43.4212 9.23462 43.4573 9.42821L42.7715 9.40542ZM42.6632 7.7658C41.7969 7.7658 41.3758 7.95933 41.3758 8.4262C41.3758 8.7678 41.6044 8.9386 41.9052 8.9386C42.3023 8.9386 42.6632 8.65396 42.6632 8.26677C42.6632 8.2782 42.6632 7.7658 42.6632 7.7658Z"
            fill="white" />
        <path
            d="M45.1423 5.5567C44.8896 5.5567 44.6851 5.36315 44.6851 5.11266C44.6851 4.86212 44.8896 4.67993 45.1542 4.67993C45.4189 4.67993 45.6355 4.86212 45.6235 5.11266C45.6355 5.3859 45.431 5.5567 45.1423 5.5567ZM45.5393 9.40548H44.7693V6.10327H45.5393V9.40548Z"
            fill="white" />
        <path d="M47.6911 9.40546H46.9211V4.58887H47.6911V9.40546Z" fill="white" />
        <path
            d="M50.9885 9.40542L50.9284 9.02966H50.9043C50.6637 9.33715 50.3268 9.48516 49.8816 9.48516C49.256 9.48516 48.8108 9.07524 48.8108 8.51726C48.8108 7.69742 49.5568 7.27613 50.8442 7.27613V7.21918C50.8442 6.78647 50.6035 6.57014 50.1223 6.57014C49.7733 6.57014 49.4725 6.64988 49.2078 6.82068L49.0514 6.34244C49.3763 6.14885 49.7733 6.05774 50.2546 6.05774C51.169 6.05774 51.6262 6.51324 51.6262 7.4242V8.64253C51.6262 8.97271 51.6382 9.23462 51.6743 9.42821H50.9885V9.40542ZM50.8802 7.7658C50.0139 7.7658 49.5929 7.95933 49.5929 8.4262C49.5929 8.7678 49.8215 8.9386 50.1223 8.9386C50.5193 8.9386 50.8802 8.65396 50.8802 8.26677V7.7658Z"
            fill="white" />
        <path
            d="M54.7766 9.48526C54.2832 9.48526 53.9101 9.29172 53.6819 8.90454H53.6698L53.6217 9.41694H52.9597C52.984 9.15508 52.984 8.84758 52.984 8.52878V4.60034H53.7659V6.59302H53.7781C54.0063 6.22863 54.3793 6.04646 54.8849 6.04646C55.727 6.04646 56.3166 6.72966 56.3166 7.7203C56.3166 8.73374 55.6668 9.48526 54.7766 9.48526ZM54.6202 6.61582C54.1748 6.61582 53.7659 6.98015 53.7659 7.49255V8.07333C53.7659 8.52878 54.1268 8.90454 54.6081 8.90454C55.1855 8.90454 55.5347 8.46046 55.5347 7.7431C55.5347 7.07126 55.1739 6.61582 54.6202 6.61582Z"
            fill="white" />
        <path d="M58.2427 9.40546H57.4724V4.58887H58.2427V9.40546Z" fill="white" />
        <path
            d="M62.4711 7.93638H60.1486C60.1605 8.56263 60.606 8.9156 61.2439 8.9156C61.5924 8.9156 61.9054 8.85865 62.1824 8.75622L62.3025 9.26862C61.9776 9.40526 61.5806 9.47358 61.1356 9.47358C60.0404 9.47358 59.4031 8.82454 59.4031 7.81111C59.4031 6.79768 60.0646 6.03479 61.051 6.03479C61.9415 6.03479 62.5072 6.66109 62.5072 7.60615C62.4948 7.73142 62.4948 7.84527 62.4711 7.93638ZM61.7611 7.41256C61.7611 6.90016 61.4841 6.54719 60.9912 6.54719C60.5457 6.54719 60.1972 6.91158 60.1486 7.41256H61.7611Z"
            fill="white" />
        <path
            d="M67.1723 9.4853C66.1492 9.4853 65.4871 8.76788 65.4871 7.78861C65.4871 6.76381 66.1616 6.04651 67.232 6.04651C68.2309 6.04651 68.9166 6.72971 68.9166 7.74308C68.9042 8.76788 68.2066 9.4853 67.1723 9.4853ZM67.1959 6.57028C66.6303 6.57028 66.2817 7.07131 66.2817 7.75451C66.2817 8.43771 66.6427 8.92732 67.1959 8.92732C67.7498 8.92732 68.1101 8.39212 68.1101 7.74308C68.0983 7.08268 67.7374 6.57028 67.1959 6.57028Z"
            fill="white" />
        <path
            d="M73.0676 9.40526H72.2978V7.50367C72.2978 6.92295 72.0569 6.62688 71.6001 6.62688C71.1421 6.62688 70.8173 7.00269 70.8173 7.43535V9.40526H70.0475V7.04822C70.0475 6.75215 70.0356 6.44471 70.0232 6.10311H70.709L70.7457 6.61551H70.7693C70.9741 6.26254 71.4072 6.03479 71.877 6.03479C72.6108 6.03479 73.0918 6.56998 73.0918 7.42398L73.0676 9.40526Z"
            fill="white" />
        <path
            d="M78.1444 6.66111H77.2905V8.26663C77.2905 8.67655 77.4349 8.88151 77.7479 8.88151C77.8799 8.88151 78.0006 8.87014 78.0965 8.84735L78.1207 9.40533C77.9645 9.46229 77.7716 9.48502 77.5189 9.48502C76.9059 9.48502 76.5444 9.16621 76.5444 8.33495V6.67253H76.0391V6.10318H76.5444V5.49968L77.3024 5.28333V6.10318H78.1568V6.66111H78.1444Z"
            fill="white" />
        <path
            d="M82.2492 9.40546H81.467V7.52666C81.467 6.93457 81.2268 6.6385 80.7694 6.6385C80.3723 6.6385 79.9995 6.90041 79.9995 7.42413V9.40546H79.2173V4.58887H79.9995V6.57012H80.0114C80.2522 6.20579 80.6126 6.03499 81.0581 6.03499C81.7918 6.03499 82.2492 6.58155 82.2492 7.44697V9.40546Z"
            fill="white" />
        <path
            d="M86.2208 7.93638H83.8864C83.8983 8.56263 84.3438 8.9156 84.9817 8.9156C85.3302 8.9156 85.6426 8.85865 85.9196 8.75622L86.0403 9.26862C85.7154 9.40526 85.3184 9.47358 84.8728 9.47358C83.7781 9.47358 83.1409 8.82454 83.1409 7.81111C83.1409 6.79768 83.8024 6.03479 84.7888 6.03479C85.6793 6.03479 86.2444 6.66109 86.2444 7.60615C86.2444 7.73142 86.2326 7.84527 86.2208 7.93638ZM85.5107 7.41256C85.5107 6.90016 85.2338 6.54719 84.7403 6.54719C84.2959 6.54719 83.9462 6.91158 83.8983 7.41256H85.5107Z"
            fill="white" />
    </g>
</svg>