<svg xmlns="http://www.w3.org/2000/svg" width="9" height="14" viewBox="0 0 9 14" fill="none">
    <path fill-rule="evenodd" clip-rule="evenodd"
        d="M8.21931 6.28073C8.40678 6.46826 8.51209 6.72256 8.51209 6.98773C8.51209 7.25289 8.40678 7.5072 8.21931 7.69473L2.56231 13.3517C2.47006 13.4472 2.35971 13.5234 2.23771 13.5758C2.11571 13.6282 1.98449 13.6558 1.85171 13.657C1.71893 13.6581 1.58725 13.6328 1.46435 13.5826C1.34146 13.5323 1.2298 13.458 1.13591 13.3641C1.04202 13.2702 0.967765 13.1586 0.917484 13.0357C0.867203 12.9128 0.841902 12.7811 0.843055 12.6483C0.844209 12.5155 0.871795 12.3843 0.924204 12.2623C0.976613 12.1403 1.0528 12.03 1.14831 11.9377L6.09831 6.98773L1.14831 2.03773C0.966147 1.84913 0.865353 1.59652 0.867632 1.33433C0.86991 1.07213 0.975079 0.821319 1.16049 0.635911C1.34589 0.450503 1.59671 0.345334 1.8589 0.343055C2.1211 0.340777 2.3737 0.441571 2.56231 0.623729L8.21931 6.28073Z"
        fill="#808A9D" />
</svg>