<svg xmlns="http://www.w3.org/2000/svg" width="10" height="13" viewBox="0 0 10 13" fill="none">
    <path
        d="M4.0222 10.3429H10V11.1968H4.0222V10.3429ZM1.10589 10.7699L0.00426995 11.8715L0.606319 12.4778L2.31426 10.7699L0.606319 9.06191L0 9.66396L1.10589 10.7699ZM4.0222 6.07301H10V6.92699H4.0222V6.07301ZM1.10589 6.5L0.00426995 7.60162L0.606319 8.20794L2.31426 6.5L0.606319 4.79206L0 5.39411L1.10589 6.5ZM4.0222 1.80316H10V2.65713H4.0222V1.80316ZM1.10589 2.23015L0.00426995 3.33177L0.606319 3.93809L2.31426 2.23015L0.606319 0.522203L0 1.12425L1.10589 2.23015Z"
        fill="#58667E" />
</svg>