<svg xmlns="http://www.w3.org/2000/svg" width="12" height="13" viewBox="0 0 12 13" fill="none">
    <path
        d="M7.25 1.5H11V5.25H7.25V1.5ZM1 7.75H4.75V11.5H1V7.75ZM7.25 9.625C7.25 10.1223 7.44754 10.5992 7.79917 10.9508C8.15081 11.3025 8.62772 11.5 9.125 11.5C9.62228 11.5 10.0992 11.3025 10.4508 10.9508C10.8025 10.5992 11 10.1223 11 9.625C11 9.12772 10.8025 8.65081 10.4508 8.29917C10.0992 7.94754 9.62228 7.75 9.125 7.75C8.62772 7.75 8.15081 7.94754 7.79917 8.29917C7.44754 8.65081 7.25 9.12772 7.25 9.625ZM1 3.375C1 3.62123 1.0485 3.86505 1.14273 4.09253C1.23695 4.32002 1.37507 4.52672 1.54917 4.70083C1.72328 4.87494 1.92998 5.01305 2.15747 5.10727C2.38495 5.2015 2.62877 5.25 2.875 5.25C3.12123 5.25 3.36505 5.2015 3.59253 5.10727C3.82002 5.01305 4.02672 4.87494 4.20083 4.70083C4.37494 4.52672 4.51305 4.32002 4.60727 4.09253C4.7015 3.86505 4.75 3.62123 4.75 3.375C4.75 3.12877 4.7015 2.88495 4.60727 2.65747C4.51305 2.42998 4.37494 2.22328 4.20083 2.04917C4.02672 1.87507 3.82002 1.73695 3.59253 1.64273C3.36505 1.5485 3.12123 1.5 2.875 1.5C2.62877 1.5 2.38495 1.5485 2.15747 1.64273C1.92998 1.73695 1.72328 1.87507 1.54917 2.04917C1.37507 2.22328 1.23695 2.42998 1.14273 2.65747C1.0485 2.88495 1 3.12877 1 3.375Z"
        stroke="#3861FB" stroke-width="1.5" stroke-linecap="round" stroke-linejoin="round" />
</svg>