<svg xmlns="http://www.w3.org/2000/svg" width="10" height="13" viewBox="0 0 10 13" fill="none">
    <path
        d="M0 3.12408C0 2.27729 0.39 1.39111 1 0.873468C1 1.34891 1.345 1.99877 2 1.99877C2.39782 1.99877 2.77936 2.17661 3.06066 2.49317C3.34196 2.80972 3.5 3.23906 3.5 3.68673C3.5 3.90392 3.4605 4.10985 3.394 4.30059C3.76488 4.63182 4.13011 4.97097 4.4895 5.31787L3.4495 6.48818C3.14135 6.08365 2.83997 5.67265 2.5455 5.25541C2.37193 5.33335 2.18688 5.37382 2 5.37469C0.895 5.37469 0 4.36754 0 3.12408ZM6.076 6.97713L6.7465 6.22261C7.05699 6.40249 7.40078 6.49752 7.75 6.5C8.34674 6.5 8.91903 6.23324 9.34099 5.75841C9.76295 5.28358 10 4.63957 10 3.96806C10 3.56014 9.906 3.17978 9.7535 2.83882L8 4.81204L7 3.68673L8.7535 1.71351C8.44301 1.53363 8.09922 1.4386 7.75 1.43612C7.15326 1.43612 6.58097 1.70288 6.15901 2.17771C5.73705 2.65254 5.5 3.29655 5.5 3.96806C5.5 4.37598 5.594 4.75634 5.7465 5.09731L0.5 11.0012L1.5 12.1265L4.924 8.27348C5.86569 9.36074 6.86359 10.3845 7.9125 11.3394L8.625 11.9859L9.375 11.1419L8.8005 10.3401C7.95193 9.15976 7.04218 8.03681 6.076 6.97713Z"
        fill="#58667E" />
</svg>