<svg xmlns="http://www.w3.org/2000/svg" width="10" height="13" viewBox="0 0 10 13" fill="none">
    <path
        d="M3.125 2.125C2.95924 2.125 2.80027 2.19085 2.68306 2.30806C2.56585 2.42527 2.5 2.58424 2.5 2.75C2.5 2.91576 2.56585 3.07473 2.68306 3.19194C2.80027 3.30915 2.95924 3.375 3.125 3.375C3.29076 3.375 3.44973 3.30915 3.56694 3.19194C3.68415 3.07473 3.75 2.91576 3.75 2.75C3.75 2.58424 3.68415 2.42527 3.56694 2.30806C3.44973 2.19085 3.29076 2.125 3.125 2.125ZM1.35625 2.125C1.48538 1.75904 1.72484 1.44215 2.04162 1.21799C2.35841 0.993841 2.73693 0.873468 3.125 0.873468C3.51307 0.873468 3.89159 0.993841 4.20837 1.21799C4.52516 1.44215 4.76462 1.75904 4.89375 2.125H9.375C9.54076 2.125 9.69973 2.19085 9.81694 2.30806C9.93415 2.42527 10 2.58424 10 2.75C10 2.91576 9.93415 3.07473 9.81694 3.19194C9.69973 3.30915 9.54076 3.375 9.375 3.375H4.89375C4.76462 3.74096 4.52516 4.05785 4.20837 4.28201C3.89159 4.50616 3.51307 4.62653 3.125 4.62653C2.73693 4.62653 2.35841 4.50616 2.04162 4.28201C1.72484 4.05785 1.48538 3.74096 1.35625 3.375H0.625C0.45924 3.375 0.300269 3.30915 0.183058 3.19194C0.0658481 3.07473 0 2.91576 0 2.75C0 2.58424 0.0658481 2.42527 0.183058 2.30806C0.300269 2.19085 0.45924 2.125 0.625 2.125H1.35625ZM6.875 5.875C6.70924 5.875 6.55027 5.94085 6.43306 6.05806C6.31585 6.17527 6.25 6.33424 6.25 6.5C6.25 6.66576 6.31585 6.82473 6.43306 6.94194C6.55027 7.05915 6.70924 7.125 6.875 7.125C7.04076 7.125 7.19973 7.05915 7.31694 6.94194C7.43415 6.82473 7.5 6.66576 7.5 6.5C7.5 6.33424 7.43415 6.17527 7.31694 6.05806C7.19973 5.94085 7.04076 5.875 6.875 5.875ZM5.10625 5.875C5.23538 5.50904 5.47484 5.19215 5.79163 4.96799C6.10841 4.74384 6.48693 4.62347 6.875 4.62347C7.26307 4.62347 7.64159 4.74384 7.95837 4.96799C8.27516 5.19215 8.51462 5.50904 8.64375 5.875H9.375C9.54076 5.875 9.69973 5.94085 9.81694 6.05806C9.93415 6.17527 10 6.33424 10 6.5C10 6.66576 9.93415 6.82473 9.81694 6.94194C9.69973 7.05915 9.54076 7.125 9.375 7.125H8.64375C8.51462 7.49096 8.27516 7.80785 7.95837 8.03201C7.64159 8.25616 7.26307 8.37653 6.875 8.37653C6.48693 8.37653 6.10841 8.25616 5.79163 8.03201C5.47484 7.80785 5.23538 7.49096 5.10625 7.125H0.625C0.45924 7.125 0.300269 7.05915 0.183058 6.94194C0.0658481 6.82473 0 6.66576 0 6.5C0 6.33424 0.0658481 6.17527 0.183058 6.05806C0.300269 5.94085 0.45924 5.875 0.625 5.875H5.10625ZM3.125 9.625C2.95924 9.625 2.80027 9.69085 2.68306 9.80806C2.56585 9.92527 2.5 10.0842 2.5 10.25C2.5 10.4158 2.56585 10.5747 2.68306 10.6919C2.80027 10.8092 2.95924 10.875 3.125 10.875C3.29076 10.875 3.44973 10.8092 3.56694 10.6919C3.68415 10.5747 3.75 10.4158 3.75 10.25C3.75 10.0842 3.68415 9.92527 3.56694 9.80806C3.44973 9.69085 3.29076 9.625 3.125 9.625ZM1.35625 9.625C1.48538 9.25904 1.72484 8.94215 2.04162 8.71799C2.35841 8.49384 2.73693 8.37347 3.125 8.37347C3.51307 8.37347 3.89159 8.49384 4.20837 8.71799C4.52516 8.94215 4.76462 9.25904 4.89375 9.625H9.375C9.54076 9.625 9.69973 9.69085 9.81694 9.80806C9.93415 9.92527 10 10.0842 10 10.25C10 10.4158 9.93415 10.5747 9.81694 10.6919C9.69973 10.8092 9.54076 10.875 9.375 10.875H4.89375C4.76462 11.241 4.52516 11.5579 4.20837 11.782C3.89159 12.0062 3.51307 12.1265 3.125 12.1265C2.73693 12.1265 2.35841 12.0062 2.04162 11.782C1.72484 11.5579 1.48538 11.241 1.35625 10.875H0.625C0.45924 10.875 0.300269 10.8092 0.183058 10.6919C0.0658481 10.5747 0 10.4158 0 10.25C0 10.0842 0.0658481 9.92527 0.183058 9.80806C0.300269 9.69085 0.45924 9.625 0.625 9.625H1.35625Z"
        fill="#58667E" />
</svg>