<svg xmlns="http://www.w3.org/2000/svg" width="101" height="28" viewBox="0 0 101 28" fill="none">
    <g clip-path="url(#clip0_223_680)">
        <path
            d="M96.4112 27.9999H4.12016C2.08798 27.9999 0.432129 26.43 0.432129 24.5034V3.51059C0.432129 1.58399 2.08798 0.0141602 4.12016 0.0141602H96.4112C98.444 0.0141602 100.099 1.58399 100.099 3.51059V24.5034C100.099 26.43 98.4288 27.9999 96.4112 27.9999Z"
            fill="black" />
        <path
            d="M96.4112 0.558162C98.1276 0.558162 99.5124 1.87111 99.5124 3.49801V24.4909C99.5124 26.1178 98.1276 27.4308 96.4112 27.4308H4.12016C2.4041 27.4308 1.01921 26.1178 1.01921 24.4909V3.49801C1.01921 1.87111 2.4041 0.558162 4.12016 0.558162H96.4112ZM96.4112 0.00158691H4.12016C2.08798 0.00158691 0.432129 1.57141 0.432129 3.49801V24.4909C0.432129 26.4175 2.08798 27.9873 4.12016 27.9873H96.4112C98.4434 27.9873 100.099 26.4175 100.099 24.4909V3.49801C100.099 1.57141 98.4288 0.00158691 96.4112 0.00158691Z"
            fill="black" />
        <path
            d="M35.4334 7.17844C35.4334 7.76358 35.2528 8.23454 34.8915 8.57704C34.47 8.99088 33.9281 9.20496 33.2658 9.20496C32.6335 9.20496 32.0766 8.99088 31.64 8.57704C31.1884 8.14892 30.9626 7.63517 30.9626 7.00719C30.9626 6.37932 31.1884 5.86552 31.64 5.45165C32.0916 5.0378 32.6335 4.82373 33.2658 4.82373C33.5819 4.82373 33.8829 4.88081 34.169 4.99498C34.4549 5.10915 34.6958 5.26615 34.8614 5.46595L34.47 5.83701C34.169 5.50875 33.7776 5.3375 33.2507 5.3375C32.784 5.3375 32.3776 5.49445 32.0464 5.80845C31.7002 6.12239 31.5347 6.522 31.5347 7.02152C31.5347 7.52099 31.7002 7.92055 32.0464 8.23454C32.3926 8.54848 32.7991 8.7055 33.2507 8.7055C33.7474 8.7055 34.1539 8.54848 34.485 8.23454C34.6958 8.03473 34.8313 7.7493 34.8614 7.37824H33.2507V6.87878H35.3883C35.4334 6.9644 35.4334 7.06431 35.4334 7.17844Z"
            fill="white" stroke="white" stroke-width="0.199309" stroke-miterlimit="10" />
        <path
            d="M38.8377 5.42305H36.8206V6.75024H38.642V7.24976H36.8206V8.57701H38.8377V9.09076H36.2485V4.89502H38.8377C38.8377 4.90929 38.8377 5.42305 38.8377 5.42305Z"
            fill="white" stroke="white" stroke-width="0.199309" stroke-miterlimit="10" />
        <path d="M41.2417 9.10505H40.6696V5.42307H39.4353V4.9093H42.476V5.42307H41.2417V9.10505Z"
            fill="white" stroke="white" stroke-width="0.199309" stroke-miterlimit="10" />
        <path d="M44.6743 9.10505V4.9093H45.2463V9.10505H44.6743Z" fill="white" stroke="white"
            stroke-width="0.199309" stroke-miterlimit="10" />
        <path d="M47.7756 9.10505H47.2036V5.42307H45.9692V4.9093H49.01V5.42307H47.7756V9.10505Z"
            fill="white" stroke="white" stroke-width="0.199309" stroke-miterlimit="10" />
        <path
            d="M54.7764 8.56255C54.3401 8.99062 53.798 9.20471 53.1506 9.20471C52.5032 9.20471 51.9615 8.99062 51.525 8.56255C51.0884 8.13438 50.8777 7.62063 50.8777 7.00699C50.8777 6.39328 51.0884 5.86526 51.525 5.45143C51.9615 5.02328 52.5032 4.8092 53.1506 4.8092C53.798 4.8092 54.3401 5.02328 54.7764 5.45143C55.2132 5.87954 55.4389 6.39328 55.4389 7.00699C55.4239 7.62063 55.2132 8.13438 54.7764 8.56255ZM51.9465 8.20572C52.2775 8.51966 52.6689 8.67668 53.1506 8.67668C53.6171 8.67668 54.0237 8.51966 54.3547 8.20572C54.6863 7.89179 54.8515 7.49217 54.8515 6.99271C54.8515 6.49319 54.6863 6.09363 54.3547 5.77963C54.0237 5.46568 53.6322 5.30868 53.1506 5.30868C52.6689 5.30868 52.2775 5.46568 51.9465 5.77963C51.6153 6.09363 51.4497 6.49319 51.4497 6.99271C51.4497 7.49217 51.6153 7.89179 51.9465 8.20572Z"
            fill="white" stroke="white" stroke-width="0.199309" stroke-miterlimit="10" />
        <path
            d="M56.2192 9.10505V4.9093H56.912L59.0645 8.17741H59.0943L59.0645 7.36395V4.9093H59.6367V9.10505H59.0493L56.7916 5.67997H56.7614L56.7916 6.49343V9.10505H56.2192Z"
            fill="white" stroke="white" stroke-width="0.199309" stroke-miterlimit="10" />
        <path
            d="M50.7293 15.2274C48.9982 15.2274 47.5832 16.4833 47.5832 18.2101C47.5832 19.9226 48.9982 21.1927 50.7293 21.1927C52.4605 21.1927 53.8903 19.9226 53.8903 18.2101C53.8903 16.4833 52.4756 15.2274 50.7293 15.2274ZM50.7293 20.0082C49.781 20.0082 48.953 19.2661 48.953 18.2101C48.953 17.1397 49.7659 16.4119 50.7293 16.4119C51.6927 16.4119 52.5054 17.1397 52.5054 18.2101C52.5054 19.2661 51.6776 20.0082 50.7293 20.0082ZM43.865 15.2274C42.1339 15.2274 40.7189 16.4833 40.7189 18.2101C40.7189 19.9226 42.1339 21.1927 43.865 21.1927C45.5961 21.1927 47.0112 19.9226 47.0112 18.2101C47.0112 16.4833 45.5961 15.2274 43.865 15.2274ZM43.865 20.0082C42.9167 20.0082 42.0888 19.2661 42.0888 18.2101C42.0888 17.1397 42.9167 16.4119 43.865 16.4119C44.8134 16.4119 45.6413 17.1397 45.6413 18.2101C45.6263 19.2661 44.8134 20.0082 43.865 20.0082ZM35.6761 16.1408V17.4109H38.8674C38.7771 18.1245 38.5211 18.6382 38.1448 18.995C37.6782 19.4374 36.9556 19.9226 35.6761 19.9226C33.7192 19.9226 32.1838 18.4241 32.1838 16.5689C32.1838 14.7137 33.7192 13.2151 35.6761 13.2151C36.7298 13.2151 37.5126 13.6148 38.0846 14.1143L39.0179 13.2294C38.22 12.5016 37.1664 11.9594 35.6761 11.9594C32.9816 11.9594 30.7236 14.0286 30.7236 16.5832C30.7236 19.1377 32.9816 21.207 35.6761 21.207C37.1363 21.207 38.2201 20.7503 39.0781 19.9083C39.9512 19.0806 40.2372 17.8961 40.2372 16.9542C40.2372 16.6545 40.2071 16.3834 40.1619 16.1693C40.1619 16.1408 35.6761 16.1408 35.6761 16.1408ZM69.1244 17.1255C68.8681 16.4548 68.0706 15.2274 66.4301 15.2274C64.8193 15.2274 63.4643 16.4405 63.4643 18.2101C63.4643 19.8798 64.7889 21.1927 66.5807 21.1927C68.0256 21.1927 68.8535 20.365 69.1991 19.8798L68.1307 19.2091C67.7693 19.7085 67.2877 20.0368 66.5807 20.0368C65.8877 20.0368 65.3757 19.7371 65.0598 19.1377L69.2598 17.4965C69.275 17.4537 69.1244 17.1255 69.1244 17.1255ZM64.8497 18.1102C64.8193 16.9685 65.7826 16.3691 66.4896 16.3691C67.032 16.3691 67.4984 16.626 67.6642 16.9971C67.6491 17.0113 64.8497 18.1102 64.8497 18.1102ZM61.432 21.0072H62.8168V12.259H61.432V21.0072ZM59.1744 15.8839H59.1289C58.8124 15.5414 58.2257 15.2274 57.473 15.2274C55.9077 15.2274 54.4627 16.5404 54.4627 18.2101C54.4627 19.8798 55.9077 21.1785 57.473 21.1785C58.2257 21.1785 58.8124 20.8645 59.1289 20.5077H59.1744V20.9359C59.1744 22.0776 58.5269 22.6912 57.5032 22.6912C56.6603 22.6912 56.1334 22.1204 55.9227 21.6352L54.7186 22.1061C55.0648 22.8911 55.9827 23.8615 57.5032 23.8615C59.1289 23.8615 60.4839 22.9624 60.4839 20.7646V15.4129H59.1744V15.8839ZM57.5934 20.0082C56.6452 20.0082 55.8472 19.2519 55.8472 18.2101C55.8472 17.154 56.6452 16.3976 57.5934 16.3976C58.5269 16.3976 59.2643 17.1683 59.2643 18.2101C59.2643 19.2519 58.5269 20.0082 57.5934 20.0082ZM75.5971 12.2447H72.3003V20.993H73.6699V17.682H75.5971C77.1326 17.682 78.6224 16.626 78.6224 14.9705C78.6224 13.3008 77.1174 12.2447 75.5971 12.2447ZM75.6275 16.469H73.6699V13.4721H75.6275C76.6509 13.4721 77.2376 14.2855 77.2376 14.9705C77.2376 15.6413 76.6509 16.469 75.6275 16.469ZM84.1477 15.2131C83.154 15.2131 82.1154 15.627 81.6933 16.5547L82.9135 17.0398C83.1692 16.5546 83.666 16.3976 84.1774 16.3976C84.885 16.3976 85.623 16.8115 85.623 17.5251V17.6107C85.3667 17.468 84.8401 17.2682 84.1774 17.2682C82.8679 17.2682 81.5129 17.9532 81.5129 19.2376C81.5129 20.4078 82.5971 21.1642 83.8009 21.1642C84.7344 21.1642 85.2464 20.7646 85.5623 20.3079H85.6078V20.9787H86.9325V17.625C86.9471 16.0837 85.7281 15.2131 84.1477 15.2131ZM83.9819 20.0082C83.5306 20.0082 82.8983 19.7942 82.8983 19.2661C82.8983 18.5954 83.6806 18.3243 84.3584 18.3243C84.9603 18.3243 85.2464 18.4527 85.623 18.6239C85.5021 19.4374 84.7799 20.0082 83.9819 20.0082ZM91.7945 15.3987L90.2141 19.1948H90.1686L88.528 15.3987H87.0376L89.4913 20.6933L88.0913 23.6474H89.5363L93.3299 15.3987H91.7945ZM79.3756 21.0072H80.7604V12.259H79.3756V21.0072Z"
            fill="white" />
        <path
            d="M8.12751 5.28024C7.91675 5.49429 7.78125 5.83682 7.78125 6.26494V21.7492C7.78125 22.1772 7.90175 22.5198 8.12751 22.7339L8.18776 22.7767L17.3401 14.0998V13.9L8.18776 5.22314L8.12751 5.28024Z"
            fill="url(#paint0_linear_223_680)" />
        <path
            d="M20.3833 16.9967L17.3425 14.0997V13.8999L20.3983 11.0028L20.4736 11.0456L24.0864 13.0008C25.11 13.5574 25.11 14.4707 24.0864 15.0273L20.4736 16.9682C20.4585 16.9539 20.3833 16.9967 20.3833 16.9967Z"
            fill="url(#paint1_linear_223_680)" />
        <path
            d="M20.4545 16.9542L17.3384 14L8.14087 22.7197C8.48713 23.0622 9.04409 23.105 9.6763 22.7625L20.4545 16.9542Z"
            fill="url(#paint2_linear_223_680)" />
        <path
            d="M20.4518 11.0457L9.65872 5.23732C9.02645 4.89483 8.46949 4.93764 8.12329 5.28012L17.3208 13.9998L20.4518 11.0457Z"
            fill="url(#paint3_linear_223_680)" />
    </g>
    <defs>
        <linearGradient id="paint0_linear_223_680" x1="16.5194" y1="21.9042" x2="2.00264"
            y2="6.41108" gradientUnits="userSpaceOnUse">
            <stop stop-color="#00A0FF" />
            <stop offset="0.0066" stop-color="#00A1FF" />
            <stop offset="0.2601" stop-color="#00BEFF" />
            <stop offset="0.5122" stop-color="#00D2FF" />
            <stop offset="0.7604" stop-color="#00DFFF" />
            <stop offset="1" stop-color="#00E3FF" />
        </linearGradient>
        <linearGradient id="paint1_linear_223_680" x1="25.4083" y1="14.0007" x2="3.02292"
            y2="14.0007" gradientUnits="userSpaceOnUse">
            <stop stop-color="#FFE000" />
            <stop offset="0.4087" stop-color="#FFBD00" />
            <stop offset="0.7754" stop-color="#FFA500" />
            <stop offset="1" stop-color="#FF9C00" />
        </linearGradient>
        <linearGradient id="paint2_linear_223_680" x1="12.5925" y1="18.2346" x2="-7.09338"
            y2="-2.77533" gradientUnits="userSpaceOnUse">
            <stop stop-color="#FF3A44" />
            <stop offset="1" stop-color="#C31162" />
        </linearGradient>
        <linearGradient id="paint3_linear_223_680" x1="-0.351286" y1="22.0372" x2="8.43938"
            y2="12.6555" gradientUnits="userSpaceOnUse">
            <stop stop-color="#32A071" />
            <stop offset="0.0685" stop-color="#2DA771" />
            <stop offset="0.4762" stop-color="#15CF74" />
            <stop offset="0.8009" stop-color="#06E775" />
            <stop offset="1" stop-color="#00F076" />
        </linearGradient>
        <clipPath id="clip0_223_680">
            <rect width="101" height="28" fill="white" />
        </clipPath>
    </defs>
</svg>