<svg width="410" height="259" viewBox="0 0 410 259" fill="none" xmlns="http://www.w3.org/2000/svg">
    <g clip-path="url(#clip0_223_98)">
        <mask id="mask0_223_98" style="mask-type:luminance" maskUnits="userSpaceOnUse" x="0" y="0"
            width="410" height="259">
            <path d="M410 0.479004H0V258.521H410V0.479004Z" fill="white" />
        </mask>
        <g mask="url(#mask0_223_98)">
            <path
                d="M263.071 115.223L246.32 120.766L263.071 126.35L279.821 120.766L263.071 115.223Z"
                fill="#E5EAF4" />
            <path d="M246.32 120.766V214.755H263.071V126.35L246.32 120.766Z" fill="#CFD6E4" />
            <path d="M279.821 120.766V214.755H263.071V126.35L279.821 120.766Z" fill="#F0F2F7" />
            <path
                d="M195.867 99.0804L179.117 104.663L195.867 110.247L212.658 104.663L195.867 99.0804Z"
                fill="#E5EAF4" />
            <path d="M179.117 104.663V198.652H195.867V110.247L179.117 104.663Z" fill="#B1BDD2" />
            <path d="M212.659 104.663V198.652H195.868V110.247L212.659 104.663Z" fill="#F0F2F7" />
            <path
                d="M100.381 108.508L81.2036 114.86L100.381 121.253L119.559 114.86L100.381 108.508Z"
                fill="#E5EAF4" />
            <path d="M81.2036 114.86V222.321H100.382V121.252L81.2036 114.86Z" fill="#CFD6E4" />
            <path d="M119.559 114.86V222.321H100.381V121.252L119.559 114.86Z" fill="#F0F2F7" />
            <path
                d="M147.923 62.5854L109.526 75.3707L147.923 88.1158L186.319 75.3707L147.923 62.5854Z"
                fill="#E5EAF4" />
            <path d="M109.526 75.3706V290.578H147.923V88.1157L109.526 75.3706Z" fill="#CFD6E4" />
            <path d="M186.32 75.3706V290.578H147.923V88.1157L186.32 75.3706Z" fill="#F0F2F7" />
            <path
                d="M299.364 56.071L272.337 65.1341L299.364 74.1973L326.432 65.1341L299.364 56.071Z"
                fill="#E5EAF4" />
            <path d="M272.337 65.134V218.073H299.364V74.1973L272.337 65.134Z" fill="#CFD6E4" />
            <path d="M326.432 65.134V218.073H299.364V74.1973L326.432 65.134Z" fill="#F0F2F7" />
            <path
                d="M331.812 149.857L293.375 162.602L331.812 175.388L370.249 162.602L331.812 149.857Z"
                fill="#E5EAF4" />
            <path d="M293.375 162.603V377.971H331.812V175.388L293.375 162.603Z" fill="#CFD6E4" />
            <path d="M370.249 162.603V377.971H331.812V175.388L370.249 162.603Z" fill="#F0F2F7" />
            <path
                d="M66.8407 140.834L39.5708 149.898L66.8407 158.961L94.1108 149.898L66.8407 140.834Z"
                fill="#E5EAF4" />
            <path d="M39.5708 149.898V302.715H66.8407V158.961L39.5708 149.898Z" fill="#CFD6E4" />
            <path d="M94.1107 149.898V302.715H66.8411V158.961L94.1107 149.898Z" fill="#F0F2F7" />
            <path
                d="M103.415 172.915L88.9714 177.689L103.415 182.504L117.9 177.689L103.415 172.915Z"
                fill="#E5EAF4" />
            <path d="M88.9714 177.689V258.73H103.416V182.504L88.9714 177.689Z" fill="#CFD6E4" />
            <path d="M117.901 177.689V258.73H103.416V182.504L117.901 177.689Z" fill="#F0F2F7" />
            <path
                d="M14.4449 171.827L0.000732422 176.641L14.4449 181.457L28.9296 176.641L14.4449 171.827Z"
                fill="#E5EAF4" />
            <path d="M0.000732422 176.642V257.683H14.4449V181.457L0.000732422 176.642Z"
                fill="#CFD6E4" />
            <path d="M28.9298 176.642V257.683H14.4451V181.457L28.9298 176.642Z" fill="#F0F2F7" />
            <path
                d="M227.466 133.269L179.117 149.331L227.466 165.434L275.856 149.331L227.466 133.269Z"
                fill="#E5EAF4" />
            <path d="M179.117 149.331V420.413H227.466V165.435L179.117 149.331Z" fill="#CFD6E4" />
            <path d="M275.855 149.331V420.413H227.465V165.435L275.855 149.331Z" fill="#F0F2F7" />
            <path
                d="M247.371 102.6L236.69 99.5248C236.974 99.5656 237.216 99.6058 237.459 99.6459C237.702 99.6868 237.985 99.7269 238.227 99.8079L248.909 102.883C248.666 102.843 248.383 102.762 248.14 102.721C247.897 102.721 247.695 102.641 247.371 102.6Z"
                fill="#808A9D" />
            <path
                d="M248.91 102.883L238.229 99.808C238.472 99.8488 238.714 99.9298 238.957 100.01L249.638 103.085C249.395 103.004 249.152 102.924 248.91 102.883Z"
                fill="#A6B0C3" />
            <path
                d="M234.992 151.435L224.31 148.36C224.31 145.649 224.31 142.898 224.31 140.147L234.992 143.221C235.032 145.973 235.032 148.684 234.992 151.435Z"
                fill="#A7ACBA" />
            <path
                d="M247.292 119.593C247.292 119.472 247.292 119.391 247.292 119.269C247.292 119.189 247.292 119.108 247.292 118.986C247.292 118.946 247.292 118.905 247.292 118.825C247.292 118.622 247.251 118.461 247.251 118.258C247.251 118.137 247.251 118.056 247.211 117.975C247.17 117.733 247.13 117.53 247.089 117.328C247.089 117.287 247.089 117.206 247.049 117.166C247.008 116.882 246.927 116.639 246.846 116.356C246.846 116.275 246.806 116.235 246.765 116.154C246.725 115.952 246.644 115.79 246.563 115.588C246.523 115.507 246.482 115.426 246.442 115.305C246.361 115.143 246.321 114.981 246.24 114.86C246.199 114.779 246.159 114.698 246.118 114.617C246.037 114.496 245.957 114.334 245.876 114.212C245.835 114.131 245.795 114.05 245.714 113.969C245.633 113.848 245.512 113.686 245.431 113.565C245.39 113.484 245.35 113.443 245.269 113.362C245.107 113.201 244.945 112.998 244.784 112.837C244.095 112.189 243.326 111.785 242.518 111.542L231.836 108.467C232.646 108.71 233.374 109.114 234.102 109.762C234.263 109.923 234.425 110.085 234.587 110.287C234.627 110.328 234.668 110.409 234.749 110.49C234.83 110.611 234.951 110.732 235.032 110.894C235.073 110.975 235.113 111.056 235.194 111.137C235.275 111.259 235.356 111.421 235.437 111.542C235.478 111.623 235.518 111.704 235.559 111.785C235.64 111.947 235.68 112.068 235.761 112.23C235.801 112.311 235.842 112.392 235.882 112.513C235.963 112.675 236.004 112.877 236.085 113.079C236.125 113.16 236.125 113.201 236.165 113.281C236.246 113.524 236.287 113.807 236.368 114.091C236.368 114.131 236.368 114.212 236.408 114.253C236.449 114.455 236.489 114.698 236.529 114.9C236.529 114.981 236.529 115.103 236.57 115.183C236.57 115.386 236.61 115.547 236.61 115.75C236.61 115.871 236.61 116.033 236.61 116.154C236.61 116.275 236.61 116.356 236.61 116.478C236.61 116.639 236.61 116.801 236.61 116.963C236.61 117.085 236.61 117.166 236.61 117.287C236.61 117.368 236.61 117.449 236.57 117.53C236.529 117.813 236.529 118.097 236.489 118.38C236.489 118.461 236.449 118.582 236.449 118.663C236.408 118.905 236.368 119.189 236.287 119.431C236.287 119.472 236.246 119.553 236.246 119.593C236.165 119.917 236.085 120.2 236.004 120.524C235.923 120.767 235.842 121.05 235.721 121.293C235.64 121.495 235.559 121.657 235.478 121.819C235.437 121.94 235.356 122.061 235.316 122.183C235.275 122.304 235.235 122.385 235.154 122.506C235.113 122.628 235.032 122.749 234.992 122.83C234.951 122.951 234.87 123.032 234.83 123.113C234.749 123.235 234.668 123.356 234.627 123.518C234.587 123.599 234.547 123.68 234.466 123.761C234.385 123.882 234.304 124.004 234.223 124.125C234.183 124.206 234.142 124.287 234.102 124.327C233.899 124.61 233.697 124.894 233.495 125.177C233.455 125.217 233.414 125.258 233.374 125.298C233.171 125.541 232.929 125.783 232.726 126.026C232.686 126.067 232.646 126.107 232.605 126.148C232.403 126.31 232.241 126.512 232.038 126.674L231.998 126.715C231.795 126.876 231.593 127.038 231.35 127.2C231.269 127.24 231.229 127.281 231.148 127.321C231.067 127.362 230.986 127.443 230.865 127.483C230.784 127.524 230.703 127.564 230.622 127.604C230.541 127.645 230.46 127.685 230.339 127.726C230.258 127.766 230.177 127.807 230.096 127.847C230.016 127.888 229.894 127.928 229.813 127.968C229.732 128.009 229.652 128.049 229.571 128.09C229.49 128.13 229.368 128.171 229.287 128.211C229.166 128.252 229.044 128.292 228.923 128.333C227.75 128.656 226.577 128.98 225.403 129.304C223.542 129.79 221.64 130.315 219.779 130.801C219.617 130.841 219.455 130.882 219.253 130.922L229.935 133.997C230.137 133.957 230.299 133.916 230.46 133.876C232.322 133.39 234.223 132.865 236.085 132.379C237.257 132.055 238.431 131.731 239.604 131.407C239.685 131.407 239.726 131.367 239.807 131.327C239.847 131.327 239.928 131.286 239.968 131.286C240.049 131.246 240.171 131.205 240.252 131.165C240.332 131.124 240.413 131.084 240.494 131.043C240.575 131.003 240.696 130.963 240.777 130.922C240.858 130.882 240.939 130.841 241.02 130.801C241.101 130.76 241.223 130.72 241.304 130.679C241.385 130.639 241.466 130.599 241.547 130.558C241.628 130.518 241.709 130.437 241.789 130.396C241.83 130.356 241.87 130.356 241.911 130.315C241.951 130.315 241.951 130.275 241.992 130.275C242.194 130.113 242.437 129.992 242.639 129.79L242.679 129.749C242.882 129.587 243.084 129.425 243.246 129.223C243.286 129.182 243.286 129.182 243.326 129.142L243.367 129.101C243.61 128.858 243.812 128.616 244.014 128.373C244.055 128.333 244.095 128.292 244.136 128.252C244.338 127.968 244.541 127.726 244.743 127.402C244.743 127.402 244.743 127.362 244.784 127.362C244.824 127.321 244.864 127.24 244.905 127.2C244.986 127.079 245.067 126.957 245.148 126.836C245.188 126.755 245.228 126.674 245.309 126.593C245.39 126.472 245.471 126.35 245.512 126.188C245.552 126.148 245.552 126.107 245.592 126.067C245.633 126.026 245.633 125.945 245.673 125.864C245.714 125.743 245.795 125.622 245.835 125.541C245.876 125.419 245.957 125.338 245.997 125.217C246.037 125.096 246.118 124.974 246.159 124.853C246.199 124.813 246.199 124.732 246.24 124.691C246.28 124.57 246.361 124.449 246.401 124.287C246.482 124.044 246.563 123.802 246.644 123.559V123.518C246.725 123.235 246.846 122.911 246.887 122.587C246.887 122.587 246.887 122.587 246.887 122.547C246.887 122.506 246.887 122.466 246.927 122.385C247.008 122.142 247.049 121.859 247.089 121.616C247.089 121.576 247.089 121.535 247.13 121.495C247.13 121.455 247.13 121.374 247.13 121.333C247.17 121.05 247.211 120.767 247.211 120.484C247.211 120.443 247.211 120.362 247.211 120.322C247.211 120.281 247.211 120.241 247.211 120.241C247.211 120.119 247.211 120.038 247.211 119.917C247.292 119.917 247.292 119.755 247.292 119.593Z"
                fill="#A6B0C3" />
            <path
                d="M224.27 154.308L213.588 151.233C213.588 148.522 213.588 145.811 213.588 143.019L224.27 146.094C224.27 148.886 224.27 151.597 224.27 154.308Z"
                fill="#A7ACBA" />
            <path
                d="M236.529 68.209C236.326 68.1685 236.124 68.0877 235.881 68.0472C235.841 68.0472 235.801 68.0472 235.76 68.0068C235.598 67.9663 235.437 67.9663 235.275 67.9258C235.113 67.8853 234.992 67.8853 234.83 67.8449C234.668 67.8449 234.506 67.8044 234.344 67.8044C234.223 67.8044 234.142 67.764 234.02 67.764C233.98 67.764 233.939 67.764 233.939 67.764C233.575 67.764 233.251 67.7235 232.887 67.764C232.685 67.764 232.523 67.764 232.321 67.8044C232.24 67.8044 232.2 67.8044 232.119 67.8449C231.998 67.8449 231.876 67.8853 231.795 67.8853C231.714 67.8853 231.634 67.9258 231.553 67.9258C231.229 67.9663 230.905 68.0067 230.581 68.0472L238.876 70.4343L241.263 71.1221C241.303 71.1221 241.384 71.1222 241.425 71.0817C241.546 71.0817 241.667 71.0412 241.748 71.0412C242.112 71.0008 242.436 70.9603 242.759 70.9198C242.84 70.9198 242.881 70.9198 242.962 70.8794C243.164 70.8794 243.326 70.8389 243.529 70.8389C243.893 70.8389 244.257 70.8389 244.58 70.8389C244.742 70.8389 244.864 70.8389 245.025 70.8794C245.187 70.8794 245.349 70.9198 245.511 70.9198C245.673 70.9198 245.794 70.9603 245.956 71.0008C246.118 71.0412 246.28 71.0412 246.442 71.0817C246.685 71.1222 246.968 71.203 247.211 71.2435L236.529 68.209Z"
                fill="#CFD6E4" />
            <path
                d="M244.54 89.4504C244.54 89.3701 244.54 89.2483 244.54 89.1673C244.54 89.1271 244.54 89.0863 244.54 89.0461C244.54 89.006 244.54 88.9651 244.54 88.925C244.54 88.7222 244.5 88.5609 244.5 88.358C244.5 88.2778 244.5 88.1968 244.46 88.1559C244.419 87.9136 244.379 87.6706 244.338 87.4276C243.812 85.0408 242.436 83.3814 240.656 82.856L229.975 79.781C231.755 80.3071 233.171 81.9249 233.656 84.3526C233.697 84.5956 233.737 84.8386 233.778 85.0809C233.778 85.1619 233.778 85.2429 233.818 85.283C233.818 85.4859 233.859 85.6472 233.859 85.85C233.859 85.931 233.859 86.0113 233.859 86.0923C233.859 86.1733 233.859 86.2951 233.859 86.3761C233.859 86.4973 233.859 86.6184 233.859 86.6994C233.859 86.7804 233.859 86.9015 233.859 86.9825C233.859 87.0635 233.859 87.1847 233.859 87.2657C233.818 87.5488 233.818 87.8728 233.737 88.1559C233.737 88.1968 233.737 88.2778 233.697 88.3179C233.656 88.5609 233.616 88.8032 233.535 89.0461C233.535 89.1271 233.495 89.1673 233.495 89.2483C233.414 89.5314 233.333 89.7744 233.252 90.0575C233.252 90.0984 233.211 90.1385 233.211 90.1794C233.131 90.4216 233.05 90.6646 232.928 90.9076C232.888 90.9879 232.888 91.0288 232.847 91.1098C232.726 91.3929 232.605 91.676 232.483 91.919C232.483 91.9592 232.443 92 232.443 92C232.281 92.3233 232.079 92.6473 231.876 92.9705C231.795 93.0924 231.714 93.2135 231.633 93.3347C231.593 93.3755 231.552 93.4565 231.512 93.4966C231.39 93.6586 231.269 93.8206 231.107 93.9819C230.945 94.1848 230.784 94.346 230.622 94.508C230.581 94.5489 230.541 94.589 230.501 94.6299C230.339 94.7912 230.217 94.913 230.056 95.0342C230.015 95.075 229.975 95.1152 229.934 95.1553C229.732 95.3173 229.57 95.4391 229.368 95.6004C229.328 95.6004 229.328 95.6413 229.287 95.6413C229.085 95.8033 228.842 95.9244 228.599 96.0054C228.558 96.0054 228.518 96.0455 228.518 96.0455C228.275 96.1674 228.032 96.2477 227.79 96.3287C227.668 96.3695 227.587 96.4097 227.466 96.4097C224.876 97.0978 222.287 97.7852 219.698 98.4733C219.657 98.4733 219.617 98.5134 219.536 98.5134C219.495 98.5134 219.414 98.5134 219.374 98.5543L230.056 101.629C230.177 101.588 230.298 101.588 230.379 101.548C232.969 100.86 235.558 100.173 238.148 99.4847C238.229 99.4445 238.31 99.4445 238.391 99.4037C238.431 99.4037 238.431 99.3635 238.471 99.3635C238.714 99.2825 238.957 99.2015 239.2 99.0804C239.24 99.0804 239.28 99.0395 239.28 99.0395C239.523 98.9184 239.725 98.7973 239.968 98.6754C240.008 98.6754 240.008 98.6353 240.049 98.6353C240.049 98.6353 240.049 98.6353 240.089 98.5944C240.292 98.4733 240.494 98.3113 240.656 98.1493C240.696 98.1091 240.737 98.069 240.777 98.0282C240.939 97.907 241.101 97.745 241.223 97.6239C241.263 97.583 241.263 97.583 241.304 97.5429L241.344 97.502C241.506 97.3408 241.668 97.1379 241.83 96.9766C241.951 96.8146 242.113 96.6526 242.234 96.4907C242.274 96.4505 242.315 96.3695 242.355 96.3287C242.436 96.2075 242.517 96.0864 242.598 95.9645C242.8 95.6413 243.002 95.3173 243.164 94.994C243.164 94.9532 243.205 94.9531 243.205 94.9531V94.913C243.326 94.6299 243.488 94.3869 243.569 94.1038C243.569 94.0629 243.609 94.0629 243.609 94.0228C243.609 93.9819 243.65 93.9418 243.65 93.9016C243.731 93.6586 243.852 93.4157 243.893 93.1734C243.893 93.1325 243.933 93.1325 243.933 93.0924C243.933 93.0924 243.933 93.0924 243.933 93.0515C244.014 92.7684 244.095 92.5254 244.176 92.2423C244.176 92.2021 244.176 92.2021 244.217 92.1613C244.217 92.1211 244.217 92.0803 244.257 92.0401C244.298 91.7972 244.379 91.5549 244.419 91.3119C244.419 91.2718 244.419 91.2309 244.46 91.1908V91.1499C244.5 90.8668 244.54 90.5435 244.581 90.2597C244.581 90.2195 244.581 90.2195 244.581 90.1794C244.581 90.0984 244.581 90.0575 244.581 89.9765C244.581 89.8955 244.581 89.7744 244.581 89.6934C244.54 89.6533 244.54 89.5723 244.54 89.4504Z"
                fill="#A6B0C3" />
            <path
                d="M235.154 72.7809L224.472 69.706C224.472 66.9548 224.472 64.2439 224.472 61.4927L235.154 64.5676C235.194 67.3189 235.154 70.0297 235.154 72.7809Z"
                fill="#A6B0C3" />
            <path
                d="M235.154 72.7809L224.472 69.706C224.472 66.9548 224.472 64.2439 224.472 61.4927L235.154 64.5676C235.194 67.3189 235.154 70.0297 235.154 72.7809Z"
                fill="#A6B0C3" />
            <path
                d="M235.194 64.5677L224.472 61.4927C226.536 60.9263 228.518 60.4004 230.541 59.8744L241.223 62.9493C239.24 63.4753 237.217 64.0013 235.194 64.5677Z"
                fill="#CFD6E4" />
            <path
                d="M230.501 74.0352L219.82 70.9605C221.397 70.556 222.935 70.1109 224.472 69.7063L235.154 72.7816C233.576 73.1859 232.039 73.631 230.501 74.0352Z"
                fill="#CFD6E4" />
            <path
                d="M211.526 139.257L200.844 136.182C203.393 135.494 205.901 134.806 208.491 134.118L219.172 137.193C216.623 137.881 214.074 138.569 211.526 139.257Z"
                fill="#CFD6E4" />
            <path
                d="M211.526 149.534L200.844 146.459C200.844 143.02 200.844 139.621 200.884 136.182L211.566 139.257C211.526 142.696 211.526 146.095 211.526 149.534Z"
                fill="#A6B0C3" />
            <path
                d="M219.173 137.193L208.491 134.118C208.532 117.611 208.572 101.143 208.613 84.5548L219.294 87.6298C219.253 104.178 219.213 120.686 219.173 137.193Z"
                fill="#A6B0C3" />
            <path
                d="M230.501 65.822L219.819 62.7471C219.779 62.7471 219.738 62.7471 219.738 62.7471C219.738 62.7471 219.738 62.7471 219.698 62.7471H219.657C219.657 62.7471 219.657 62.7471 219.617 62.7471C218.889 62.9493 218.12 63.1516 217.392 63.354C216.259 63.6372 215.167 63.9609 214.034 64.2441C214.034 64.2441 214.034 64.2441 213.993 64.2441C213.953 64.2441 213.912 64.2846 213.872 64.2846C213.872 64.2846 213.831 64.2846 213.831 64.325L213.791 64.3654C213.791 64.3654 213.791 64.3655 213.791 64.4059C213.791 64.4059 213.791 64.4059 213.791 64.4464V64.4868V64.5273C213.791 64.5678 213.791 64.5678 213.791 64.6082C213.791 64.6891 213.791 64.7296 213.791 64.8105C213.791 67.1976 213.791 69.5848 213.791 71.9719C213.791 72.1745 213.791 72.3358 213.75 72.5788L224.432 75.6538C224.432 75.4108 224.472 75.2086 224.472 75.0466C224.472 72.6598 224.472 70.2726 224.472 67.8855C224.472 67.8046 224.472 67.7641 224.472 67.6832C224.472 67.6023 224.472 67.5618 224.513 67.5214C224.513 67.4809 224.553 67.4404 224.594 67.3999C224.634 67.3595 224.675 67.3191 224.755 67.3191C225.888 67.0358 227.021 66.7122 228.114 66.4289C228.842 66.2266 229.611 66.0243 230.339 65.822C230.38 65.822 230.38 65.822 230.42 65.822C230.42 65.822 230.46 65.822 230.501 65.822Z"
                fill="#A6B0C3" />
            <path
                d="M211.647 89.6935L200.965 86.6185C200.965 83.0984 200.965 79.6191 201.006 76.0581L211.687 79.1331C211.647 82.6941 211.647 86.1733 211.647 89.6935Z"
                fill="#A6B0C3" />
            <path
                d="M257.811 113.888C258.256 116.801 258.175 119.836 257.487 122.951C256.638 126.836 255.059 130.234 252.753 133.148C250.892 135.454 248.748 136.991 246.563 138.367C244.945 139.419 243.285 140.268 241.667 141.199C241.506 141.28 241.344 141.401 241.142 141.482C241.142 144.233 241.142 146.984 241.142 149.776C239.118 150.343 237.095 150.869 235.073 151.395C235.073 148.684 235.073 145.933 235.073 143.181C233.494 143.586 231.998 144.031 230.419 144.436C230.419 147.187 230.419 149.897 230.419 152.649C228.396 153.175 226.374 153.742 224.35 154.268C224.35 151.557 224.35 148.846 224.35 146.054C220.062 147.187 215.854 148.32 211.565 149.493C211.565 146.054 211.565 142.656 211.606 139.217C214.155 138.529 216.663 137.84 219.252 137.153C219.293 120.646 219.333 104.178 219.374 87.5896C216.825 88.277 214.276 88.9651 211.727 89.6532C211.727 86.1331 211.727 82.6531 211.767 79.0929C215.975 77.9596 220.224 76.8271 224.512 75.6939C224.512 75.4516 224.553 75.2495 224.553 75.0875C224.553 72.6999 224.553 70.3131 224.553 67.926C224.553 67.6427 224.553 67.4 224.836 67.3191C225.969 67.0358 227.102 66.7122 228.194 66.4289C228.923 66.2266 229.691 66.0243 230.419 65.822C230.46 65.822 230.5 65.822 230.581 65.822C230.581 68.5329 230.581 71.2437 230.581 74.0353C232.159 73.631 233.696 73.1859 235.234 72.7809C235.234 70.0299 235.234 67.319 235.234 64.5678C237.297 64.0013 239.28 63.4753 241.303 62.9493C241.303 65.7006 241.303 68.4114 241.303 71.1222C242.112 71.0413 242.881 70.92 243.609 70.8795C246.765 70.7986 249.557 71.6482 251.782 74.2374C253.36 76.139 254.291 78.6478 254.736 81.6016C255.181 84.7168 255.221 87.9537 254.533 91.352C253.482 96.3695 251.175 100.051 247.656 102.439C247.615 102.479 247.575 102.479 247.494 102.6C247.777 102.641 248.02 102.681 248.262 102.722C251.135 103.167 253.603 104.501 255.464 107.131C256.678 108.953 257.406 111.259 257.811 113.888ZM246.36 124.408C248.06 120.119 247.372 115.143 244.864 112.877C243.326 111.461 241.506 111.056 239.442 111.623C236.731 112.351 233.98 113.079 231.269 113.807C230.864 113.929 230.419 114.05 229.974 114.172C229.974 120.848 229.934 127.443 229.934 134.159C230.136 134.118 230.298 134.078 230.46 134.037C232.321 133.552 234.222 133.026 236.084 132.541C237.257 132.217 238.431 131.893 239.604 131.569C242.557 130.639 244.864 128.292 246.36 124.408ZM230.015 85.0407C230.015 90.5836 229.974 96.1265 229.974 101.71C230.096 101.669 230.217 101.669 230.298 101.629C232.888 100.941 235.477 100.254 238.067 99.5656C239.401 99.2015 240.656 98.3923 241.789 97.0569C243.974 94.508 245.025 90.5836 244.338 87.3875C243.609 83.9885 241.061 82.0869 238.188 82.8151C237.135 83.0983 236.124 83.3814 235.073 83.6244C233.535 84.0286 231.957 84.4738 230.379 84.8787C230.298 84.9597 230.177 84.9999 230.015 85.0407Z"
                fill="#DEE5F1" />
            <path
                d="M211.647 79.1331L200.965 76.0581C205.174 74.9255 209.421 73.7923 213.71 72.6598L224.392 75.7348C220.103 76.8673 215.895 78.0005 211.647 79.1331Z"
                fill="#CFD6E4" />
            <path
                d="M224.553 67.3999C224.594 67.3595 224.634 67.3191 224.715 67.3191C225.848 67.0358 226.981 66.7122 228.073 66.4289C228.801 66.2266 229.571 66.0243 230.299 65.822C230.339 65.822 230.339 65.822 230.38 65.822C230.42 65.822 230.461 65.822 230.501 65.822L219.819 62.7471C219.779 62.7471 219.738 62.7471 219.738 62.7471C219.738 62.7471 219.738 62.7471 219.698 62.7471H219.657C219.657 62.7471 219.657 62.7471 219.617 62.7471C218.889 62.9493 218.12 63.1516 217.392 63.354C216.259 63.6372 215.167 63.9609 214.034 64.2441C214.034 64.2441 214.034 64.2441 213.993 64.2441C213.953 64.2441 213.912 64.2846 213.872 64.2846C213.872 64.2846 213.831 64.2846 213.831 64.325L213.791 64.3654C213.791 64.3654 213.791 64.3655 213.791 64.4059C213.791 64.4059 213.791 64.4059 213.791 64.4464V64.4868V64.5273V64.5678L224.473 67.5618C224.473 67.4809 224.513 67.4404 224.553 67.3999Z"
                fill="#CFD6E4" />
            <path
                d="M147.922 81.7629C159.228 81.7629 168.394 78.6478 168.394 74.8044C168.394 70.9608 159.228 67.8451 147.922 67.8451C136.615 67.8451 127.449 70.9608 127.449 74.8044C127.449 78.6478 136.615 81.7629 147.922 81.7629Z"
                fill="#CFD6E4" />
            <path d="M168.395 67.8856H127.408V74.8445H168.395V67.8856Z" fill="#CFD6E4" />
            <path
                d="M147.922 74.8445C159.229 74.8445 168.395 71.729 168.395 67.8856C168.395 64.0421 159.229 60.9264 147.922 60.9264C136.615 60.9264 127.45 64.0421 127.45 67.8856C127.45 71.729 136.615 74.8445 147.922 74.8445Z"
                fill="#D9E0EF" />
            <path
                d="M151.119 70.1512C162.425 70.1512 171.592 67.0355 171.592 63.1921C171.592 59.3487 162.425 56.233 151.119 56.233C139.812 56.233 130.646 59.3487 130.646 63.1921C130.646 67.0355 139.812 70.1512 151.119 70.1512Z"
                fill="#A6B0C3" />
            <path d="M171.632 56.233H130.646V63.1921H171.632V56.233Z" fill="#A6B0C3" />
            <path
                d="M151.119 63.192C162.425 63.192 171.592 60.0763 171.592 56.2329C171.592 52.3895 162.425 49.2738 151.119 49.2738C139.812 49.2738 130.646 52.3895 130.646 56.2329C130.646 60.0763 139.812 63.192 151.119 63.192Z"
                fill="#D9E0EF" />
            <path
                d="M145.009 63.718C156.315 63.718 165.482 60.6023 165.482 56.7589C165.482 52.9155 156.315 49.7998 145.009 49.7998C133.702 49.7998 124.536 52.9155 124.536 56.7589C124.536 60.6023 133.702 63.718 145.009 63.718Z"
                fill="#CFD6E4" />
            <path d="M165.481 49.7998H124.495V56.7589H165.481V49.7998Z" fill="#CFD6E4" />
            <path
                d="M145.009 56.7588C156.315 56.7588 165.482 53.6431 165.482 49.7997C165.482 45.9563 156.315 42.8406 145.009 42.8406C133.702 42.8406 124.536 45.9563 124.536 49.7997C124.536 53.6431 133.702 56.7588 145.009 56.7588Z"
                fill="#D9E0EF" />
            <path
                d="M151.119 54.9784C162.425 54.9784 171.592 51.8628 171.592 48.0193C171.592 44.1759 162.425 41.0602 151.119 41.0602C139.812 41.0602 130.646 44.1759 130.646 48.0193C130.646 51.8628 139.812 54.9784 151.119 54.9784Z"
                fill="#A6B0C3" />
            <path d="M171.632 41.1008H130.646V48.0599H171.632V41.1008Z" fill="#A6B0C3" />
            <path
                d="M151.119 48.0598C162.425 48.0598 171.592 44.9441 171.592 41.1007C171.592 37.2572 162.425 34.1416 151.119 34.1416C139.812 34.1416 130.646 37.2572 130.646 41.1007C130.646 44.9441 139.812 48.0598 151.119 48.0598Z"
                fill="#D9E0EF" />
            <path
                d="M368.632 96.6929L368.834 151.153L299.728 176.035L299.526 121.576L368.632 96.6929Z"
                fill="#CFD6E4" />
            <path
                d="M299.729 176.035L290.342 172.555L290.14 118.096L299.527 121.576L299.729 176.035Z"
                fill="#B1BDD2" />
            <path
                d="M299.526 121.576L290.139 118.097L359.244 93.2136L368.631 96.6929L299.526 121.576Z"
                fill="#A6B0C3" />
            <path
                d="M376.724 96.6928C376.643 96.6527 376.562 96.6527 376.481 96.6118H376.44C376.4 96.6118 376.36 96.6118 376.36 96.6118C376.319 96.6118 376.279 96.6118 376.238 96.6118C376.198 96.6118 376.157 96.6118 376.117 96.6118C376.076 96.6118 376.036 96.6118 375.995 96.6118C375.955 96.6118 375.955 96.6118 375.915 96.6118C375.874 96.6118 375.834 96.6118 375.793 96.6527C375.753 96.6527 375.712 96.6527 375.631 96.6928H375.591C375.51 96.7337 375.429 96.7337 375.308 96.7738C375.267 96.8139 375.187 96.8139 375.146 96.8548C375.106 96.8548 375.065 96.8949 375.065 96.8949C375.025 96.9358 374.984 96.9358 374.944 96.9759C374.863 97.0168 374.822 97.0569 374.741 97.0978C374.701 97.1379 374.66 97.1379 374.62 97.1781C374.539 97.2189 374.458 97.2999 374.417 97.3401C374.377 97.3809 374.336 97.3809 374.296 97.4211C374.174 97.5021 374.094 97.6232 373.972 97.7042L343.91 129.992L353.297 133.471L383.359 101.184C383.44 101.062 383.561 100.981 383.683 100.901C383.723 100.86 383.764 100.86 383.804 100.82C383.885 100.779 383.926 100.698 384.007 100.658C384.047 100.617 384.088 100.617 384.128 100.577C384.209 100.536 384.25 100.496 384.33 100.456C384.371 100.415 384.411 100.415 384.452 100.375C384.533 100.334 384.614 100.294 384.735 100.253C384.856 100.213 384.937 100.172 385.059 100.172C385.099 100.172 385.18 100.172 385.22 100.132C385.301 100.132 385.342 100.132 385.423 100.092C385.463 100.092 385.503 100.092 385.544 100.092C385.625 100.092 385.706 100.092 385.746 100.092C385.787 100.092 385.827 100.092 385.827 100.092C385.908 100.092 386.029 100.132 386.11 100.172L376.724 96.6928Z"
                fill="#A6B0C3" />
            <path
                d="M350.021 141.401L343.062 129.668L333.675 126.188L340.634 137.921C340.836 138.245 341.079 138.488 341.362 138.65C341.443 138.691 341.564 138.731 341.645 138.772L351.032 142.251C350.627 142.13 350.304 141.806 350.021 141.401Z"
                fill="#A6B0C3" />
            <path
                d="M344.518 120.079C344.599 120.079 344.68 120.079 344.761 120.119C344.842 120.119 344.923 120.16 345.004 120.2L335.617 116.72C335.536 116.68 335.455 116.68 335.374 116.639C335.293 116.639 335.212 116.599 335.131 116.599H335.091C335.01 116.599 334.969 116.599 334.888 116.599C334.807 116.599 334.726 116.599 334.686 116.639C334.645 116.639 334.605 116.639 334.565 116.68C334.484 116.72 334.403 116.72 334.281 116.761C334.241 116.801 334.16 116.801 334.12 116.842C333.998 116.882 333.917 116.963 333.796 117.004C333.634 117.085 333.513 117.206 333.351 117.327C333.311 117.368 333.27 117.368 333.27 117.408C333.149 117.53 333.028 117.651 332.906 117.772C332.906 117.772 332.906 117.772 332.906 117.813C332.866 117.853 332.825 117.894 332.785 117.975C332.704 118.056 332.623 118.177 332.542 118.298C332.502 118.339 332.502 118.379 332.461 118.42L314.052 146.62L323.438 150.1L341.848 121.899C341.929 121.737 342.05 121.616 342.171 121.494C342.212 121.454 342.252 121.414 342.293 121.333C342.414 121.171 342.535 121.05 342.697 120.928C342.738 120.888 342.778 120.888 342.778 120.847C342.9 120.726 343.061 120.645 343.223 120.524C343.385 120.443 343.547 120.362 343.708 120.281C343.83 120.241 343.951 120.2 344.113 120.16C344.194 120.16 344.275 120.119 344.356 120.119C344.437 120.119 344.478 120.119 344.559 120.119C344.478 120.079 344.518 120.079 344.518 120.079Z"
                fill="#A6B0C3" />
            <path
                d="M320.484 158.556L313.606 147.43L304.219 143.95L311.097 155.076C311.34 155.481 311.664 155.764 312.068 155.926L321.455 159.406C321.051 159.244 320.727 158.96 320.484 158.556Z"
                fill="#A6B0C3" />
            <path
                d="M306.242 134.725C306.162 134.685 306.081 134.685 306 134.644C305.959 134.644 305.878 134.644 305.838 134.604H305.798H305.757C305.676 134.604 305.555 134.604 305.474 134.604C305.433 134.604 305.393 134.604 305.353 134.604C305.312 134.604 305.231 134.644 305.191 134.644C305.11 134.685 304.988 134.685 304.907 134.725C304.867 134.766 304.786 134.766 304.745 134.806C304.664 134.847 304.583 134.887 304.543 134.928C304.502 134.928 304.502 134.968 304.462 134.968C304.34 135.049 304.179 135.13 304.057 135.251C304.017 135.292 303.976 135.292 303.976 135.332C303.855 135.413 303.774 135.494 303.693 135.615C303.653 135.656 303.612 135.696 303.612 135.696C303.612 135.737 303.572 135.737 303.572 135.737C303.451 135.858 303.37 135.979 303.289 136.101L280.672 167.133C280.631 167.174 280.631 167.214 280.591 167.254C280.51 167.376 280.429 167.497 280.348 167.659C280.307 167.7 280.307 167.74 280.267 167.781C280.267 167.821 280.226 167.862 280.226 167.862C280.186 167.902 280.186 167.943 280.145 168.024C280.105 168.145 280.024 168.267 279.984 168.388C279.984 168.428 279.943 168.469 279.943 168.509C279.943 168.55 279.903 168.55 279.903 168.59C279.903 168.631 279.862 168.671 279.862 168.752C279.822 168.873 279.781 168.995 279.741 169.116C279.741 169.156 279.741 169.197 279.701 169.237C279.701 169.278 279.701 169.318 279.66 169.318C279.66 169.359 279.62 169.44 279.62 169.48C279.579 169.642 279.579 169.763 279.539 169.925V169.965C279.539 170.006 279.539 170.046 279.539 170.087C279.539 170.208 279.539 170.289 279.539 170.41C279.539 170.451 279.539 170.532 279.539 170.572C279.539 170.653 279.539 170.734 279.539 170.815C279.539 170.937 279.579 171.099 279.579 171.22C279.579 171.301 279.62 171.382 279.62 171.463C279.66 171.584 279.701 171.706 279.741 171.827C279.781 171.867 279.781 171.948 279.822 171.989C279.903 172.15 279.984 172.312 280.105 172.474C280.348 172.798 280.631 173 280.955 173.121L290.342 176.601C290.018 176.479 289.735 176.277 289.492 175.953C289.37 175.792 289.289 175.63 289.208 175.468C289.168 175.428 289.168 175.347 289.128 175.306C289.087 175.185 289.047 175.064 289.006 174.942C289.006 174.861 288.966 174.781 288.966 174.7C288.925 174.578 288.925 174.457 288.925 174.295C288.925 174.214 288.925 174.133 288.925 174.052C288.925 173.89 288.925 173.728 288.925 173.566C288.925 173.526 288.925 173.485 288.925 173.445C288.966 173.243 288.966 173.04 289.047 172.798C289.047 172.757 289.047 172.717 289.087 172.717C289.128 172.515 289.208 172.312 289.289 172.07C289.289 172.029 289.33 172.029 289.33 171.989C289.411 171.786 289.492 171.584 289.613 171.382C289.613 171.342 289.654 171.301 289.654 171.301C289.775 171.099 289.897 170.896 290.018 170.694L312.635 139.661C312.756 139.499 312.878 139.378 312.999 139.216C313.04 139.176 313.08 139.135 313.08 139.135C313.161 139.054 313.282 138.933 313.363 138.852C313.403 138.812 313.444 138.812 313.444 138.771C313.565 138.65 313.687 138.569 313.849 138.488C313.889 138.488 313.889 138.448 313.93 138.448C314.051 138.367 314.213 138.326 314.335 138.245C314.497 138.205 314.658 138.164 314.78 138.124C314.941 138.084 315.103 138.084 315.225 138.124H315.265C315.386 138.124 315.548 138.164 315.67 138.205L306.242 134.725Z"
                fill="#A6B0C3" />
            <path
                d="M384.736 100.173C385.747 99.8086 386.677 100.173 387.203 101.184C387.932 102.681 387.446 105.068 386.111 106.525L353.743 141.28C353.298 141.725 352.853 142.049 352.408 142.211C351.478 142.534 350.587 142.251 350.021 141.361L343.062 129.628L324.693 157.747C324.167 158.556 323.519 159.082 322.832 159.325C322.71 159.365 322.589 159.406 322.468 159.446C321.659 159.608 320.93 159.284 320.485 158.556L313.607 147.43L293.377 175.186C292.851 175.873 292.285 176.359 291.678 176.561C290.828 176.844 290.019 176.682 289.452 175.954C288.482 174.7 288.724 172.354 289.938 170.654L312.555 139.621C313.041 138.934 313.647 138.448 314.254 138.245C314.416 138.205 314.578 138.164 314.699 138.124C315.468 138.002 316.156 138.367 316.601 139.055L323.357 150.019L341.767 121.819C342.293 121.05 342.941 120.484 343.628 120.241C343.75 120.2 343.871 120.16 344.033 120.119C344.842 119.957 345.571 120.322 346.016 121.05L353.338 133.431L383.4 101.144C383.805 100.658 384.25 100.375 384.736 100.173Z"
                fill="#D9E0EF" />
            <path
                d="M84.1963 73.4282C84.2773 73.4282 84.3583 73.4282 84.4794 73.4282C84.5203 73.4282 84.5604 73.4282 84.6013 73.4282C84.6823 73.4282 84.7224 73.4282 84.8034 73.469C84.8844 73.469 84.9246 73.5092 85.0056 73.5092L77.6019 71.4053C77.5611 71.4053 77.5209 71.3648 77.4801 71.3648C77.4399 71.3648 77.4399 71.3648 77.3991 71.3648C77.3181 71.3648 77.2779 71.3243 77.1969 71.3243C77.1568 71.3243 77.1568 71.3243 77.1159 71.3243H77.0758C76.9948 71.3243 76.9138 71.3243 76.7927 71.3243C76.7518 71.3243 76.7518 71.3243 76.7117 71.3243C76.5898 71.3243 76.4687 71.3648 76.3877 71.4053L47.1353 79.2542L54.5394 81.3587L83.792 73.5092C83.9132 73.469 84.035 73.469 84.1153 73.4282C84.1153 73.4282 84.1562 73.4282 84.1963 73.4282Z"
                fill="#B1BDD2" />
            <path
                d="M83.7527 73.5092C85.5324 73.0239 86.9889 74.6015 86.9889 76.9891L86.8678 142.898C86.8678 145.285 85.4113 147.632 83.6308 148.118L54.3785 155.966C52.5982 156.452 51.1416 154.874 51.1416 152.487L51.263 86.5775C51.263 84.1907 52.7195 81.8439 54.4998 81.3586L83.7527 73.5092Z"
                fill="#D9E0EF" />
            <path
                d="M53.7304 154.065C53.6899 154.065 53.609 154.065 53.5281 153.943C53.3258 153.741 53.083 153.215 53.083 152.446L53.2044 86.5367C53.2044 84.7971 54.2968 83.3815 55.0251 83.1786L84.2773 75.3298C84.3182 75.3298 84.3583 75.3298 84.3992 75.3298C84.4393 75.3298 84.5203 75.3298 84.6013 75.451C84.8035 75.6531 85.0465 76.1792 85.0465 76.9483L84.9253 142.857C84.9253 144.597 83.8731 146.013 83.104 146.175L53.8518 154.024C53.8113 154.065 53.7708 154.065 53.7304 154.065Z"
                fill="#CFD6E4" />
            <path
                d="M47.0954 79.2542C47.055 79.2542 47.0145 79.295 46.9741 79.295C46.9336 79.295 46.9336 79.3351 46.8931 79.3351C46.8122 79.376 46.7313 79.4161 46.6504 79.457C46.6099 79.457 46.5694 79.4971 46.529 79.4971C46.4481 79.5373 46.3672 79.5781 46.2457 79.6591C46.2053 79.6591 46.2053 79.6993 46.1648 79.6993C46.1648 79.6993 46.1648 79.6993 46.1244 79.6993C46.0435 79.7401 46.003 79.7803 45.9625 79.8211C45.922 79.8613 45.8816 79.9014 45.8412 79.9014C45.7603 79.9423 45.7198 80.0233 45.6388 80.0634C45.5984 80.1043 45.5579 80.1043 45.5579 80.1444C45.4366 80.2662 45.3556 80.3874 45.2343 80.5085C45.1938 80.5494 45.1938 80.5895 45.1534 80.6304C45.0724 80.7107 44.9915 80.8325 44.951 80.9135C44.951 80.9536 44.9106 80.9536 44.9106 80.9945L44.8701 81.0346C44.7487 81.1966 44.6678 81.3586 44.5869 81.5199C44.5869 81.5608 44.5465 81.5608 44.5465 81.6009C44.506 81.7228 44.425 81.8439 44.3846 81.965C44.3846 82.0059 44.3846 82.0059 44.3441 82.046C44.3441 82.0869 44.3037 82.127 44.3037 82.1672C44.2633 82.2482 44.2228 82.37 44.1823 82.451C44.1823 82.4911 44.1418 82.532 44.1418 82.532C44.1418 82.5721 44.1418 82.5721 44.1014 82.6123C44.0609 82.6933 44.0609 82.7743 44.0205 82.8961C44.0205 82.9363 43.98 82.9764 43.98 83.0173C43.98 83.0574 43.98 83.0574 43.98 83.0983C43.9396 83.1793 43.9396 83.3004 43.8991 83.3814C43.8991 83.4215 43.8991 83.4624 43.8586 83.5025V83.5434C43.8181 83.7047 43.8181 83.8666 43.8181 84.0286C43.8181 84.1906 43.8181 84.3118 43.8181 84.4738L43.6968 150.383C43.6968 150.464 43.6968 150.545 43.6968 150.626C43.6968 150.707 43.6968 150.788 43.7372 150.869C43.7372 150.95 43.7372 151.071 43.7777 151.152C43.7777 151.273 43.8181 151.354 43.8181 151.475C43.8181 151.556 43.8586 151.637 43.8586 151.718C43.8991 151.839 43.9396 151.92 43.9396 152.001C43.98 152.082 43.98 152.163 44.0205 152.244C44.0609 152.325 44.1014 152.406 44.1418 152.527C44.1823 152.608 44.2228 152.648 44.2633 152.729C44.3037 152.81 44.3846 152.891 44.425 152.972C44.4655 153.013 44.506 153.094 44.5465 153.134C44.6274 153.215 44.6678 153.256 44.7487 153.337C44.7892 153.377 44.8297 153.418 44.8701 153.458C44.951 153.539 45.0319 153.58 45.1129 153.62C45.1534 153.661 45.1938 153.661 45.2343 153.701C45.3556 153.782 45.5175 153.822 45.6388 153.863L53.043 155.966C52.8812 155.926 52.7598 155.885 52.6384 155.804C52.5979 155.764 52.5575 155.764 52.517 155.723C52.4361 155.683 52.3552 155.602 52.2743 155.562C52.2338 155.521 52.1934 155.481 52.1529 155.44C52.072 155.359 52.0315 155.319 51.9506 155.238C51.9101 155.198 51.8697 155.117 51.8292 155.076C51.7888 154.995 51.7078 154.914 51.6674 154.833C51.6269 154.753 51.5865 154.712 51.546 154.631C51.5056 154.55 51.4651 154.469 51.4246 154.348C51.3841 154.267 51.3841 154.186 51.3437 154.105C51.3032 154.025 51.2628 153.903 51.2628 153.822C51.2223 153.741 51.2223 153.661 51.2223 153.58C51.1819 153.458 51.1819 153.377 51.1819 153.256C51.1819 153.175 51.1819 153.053 51.1414 152.972C51.1414 152.81 51.1009 152.689 51.1009 152.527L51.2223 86.6184C51.2223 86.4564 51.2223 86.3345 51.2223 86.1733C51.2223 86.0113 51.2628 85.8493 51.2628 85.6873C51.2628 85.6471 51.3032 85.5661 51.3032 85.526C51.3032 85.4042 51.3437 85.3232 51.3841 85.2422C51.3841 85.1619 51.4246 85.121 51.4246 85.04C51.4651 84.959 51.4651 84.878 51.5056 84.7569C51.5056 84.7168 51.546 84.6358 51.546 84.5949C51.5865 84.5139 51.6269 84.3928 51.6674 84.3118C51.7078 84.2716 51.7078 84.1906 51.7483 84.1498C51.7888 84.0286 51.8697 83.9075 51.9101 83.7857C51.9101 83.7455 51.9506 83.7455 51.9506 83.7047C52.0315 83.5434 52.1529 83.3814 52.2338 83.2194C52.2743 83.1793 52.2743 83.1384 52.3147 83.0983C52.3957 83.0173 52.4361 82.8961 52.517 82.8151C52.5575 82.7743 52.5575 82.7341 52.5979 82.6933C52.6789 82.5721 52.8003 82.451 52.9216 82.3292C52.9621 82.289 53.0026 82.2482 53.043 82.2482C53.1239 82.208 53.1644 82.127 53.2453 82.0869C53.2858 82.046 53.3263 82.0059 53.3667 82.0059C53.4072 81.965 53.4881 81.9249 53.5285 81.884C53.569 81.8439 53.6095 81.8439 53.6095 81.8439C53.6904 81.803 53.7713 81.7228 53.8927 81.6819C53.9332 81.6418 53.9736 81.6418 54.0141 81.6418C54.095 81.6009 54.1759 81.5608 54.2568 81.5199C54.3377 81.4798 54.3782 81.4798 54.4591 81.4389L47.0954 79.2542Z"
                fill="#A6B0C3" />
            <path
                d="M71.049 141.361C72.4653 140.996 73.5978 142.211 73.5978 144.112C73.5978 146.014 72.4653 147.835 71.049 148.239C69.6329 148.603 68.5 147.389 68.5 145.488C68.5 143.586 69.6329 141.725 71.049 141.361Z"
                fill="#D9E0EF" />
            <path
                d="M81.4459 112.917C81.5269 115.021 80.7986 116.882 79.383 118.056C78.7758 118.541 78.0877 118.864 77.4003 118.945C76.8334 119.026 76.2671 118.945 75.741 118.703C74.5275 118.136 73.8393 116.72 73.8393 114.819V112.229C73.7584 112.351 73.6781 112.512 73.5562 112.674L70.6433 118.177C69.8341 119.634 69.1058 120.119 68.5394 120.2C68.3775 120.241 68.2562 120.2 68.1348 120.2C67.5279 120.119 66.7996 119.553 66.7996 117.53V113.281L61.4994 123.154C63.3605 125.176 66.0309 126.188 69.0249 125.784C71.5739 125.419 74.0823 124.003 75.9438 121.859C76.1861 121.575 76.4692 121.454 76.7122 121.414C76.9953 121.373 77.3193 121.454 77.5215 121.697C77.9666 122.142 77.9257 122.911 77.4813 123.437C75.1747 126.107 72.2216 127.806 69.0654 128.251C62.2276 129.223 56.6846 123.882 56.7251 116.437C56.7251 108.952 62.3085 102.074 69.1058 101.143C75.8628 100.172 81.4057 105.473 81.4459 112.917ZM78.2096 116.073C78.897 115.506 79.221 114.495 79.1801 113.322C79.1801 107.131 74.6486 102.802 69.0654 103.611C63.4819 104.38 58.9099 110.004 58.9099 116.113C58.9099 117.934 59.3145 119.674 60.0833 121.131L65.9904 110.166C66.5163 109.195 67.0828 108.871 67.5279 108.831C67.6493 108.831 67.8111 108.831 67.892 108.831C68.6203 108.952 69.0249 109.68 69.0249 110.975V116.559L71.6548 111.623C72.0187 110.894 72.9498 109.114 74.2443 108.952C74.4063 108.912 74.5275 108.952 74.6895 108.952C75.5797 109.114 76.065 110.044 76.065 111.461V114.414C76.065 115.385 76.3481 116.073 76.8334 116.316C76.9953 116.397 77.1975 116.397 77.4003 116.397C77.6835 116.397 77.9666 116.275 78.2096 116.073Z"
                fill="#F9FAFE" />
            <path
                d="M324.367 49.2737L314.01 46.1988C313.888 46.1583 313.767 46.0774 313.646 45.9965L324.003 49.0715C324.124 49.1524 324.246 49.2333 324.367 49.2737Z"
                fill="#62666E" />
            <path
                d="M324.004 49.0714L313.646 45.9965L305.19 39.4824L315.548 42.5573L324.004 49.0714Z"
                fill="#A6B0C3" />
            <path
                d="M324.61 3.55395C324.691 3.55395 324.731 3.55395 324.812 3.55395C324.853 3.55395 324.893 3.55395 324.893 3.55395C324.934 3.55395 325.015 3.55395 325.055 3.59441C325.096 3.59441 325.136 3.59442 325.217 3.63487L314.859 0.559917C314.819 0.559917 314.819 0.559914 314.778 0.519454H314.738C314.698 0.519454 314.617 0.519464 314.576 0.479004H314.536H314.495C314.414 0.479004 314.374 0.479004 314.293 0.479004H314.253C314.172 0.479004 314.091 0.519454 313.969 0.519454L274.457 10.9082L284.564 14.0979L324.327 3.59441C324.408 3.55395 324.489 3.55395 324.61 3.55395C324.57 3.59441 324.57 3.59441 324.61 3.55395Z"
                fill="#A6B0C3" />
            <path
                d="M283.462 50.3254C283.381 50.285 283.341 50.2445 283.26 50.2041C283.219 50.1636 283.179 50.1232 283.138 50.1232C283.098 50.0827 283.017 50.0422 282.977 49.9613C282.936 49.9209 282.896 49.8804 282.896 49.84C282.855 49.7995 282.815 49.7185 282.774 49.6781C282.734 49.6376 282.734 49.5567 282.693 49.5163C282.653 49.4353 282.613 49.3949 282.613 49.314C282.572 49.2735 282.572 49.1926 282.532 49.1521C282.491 49.0712 282.491 48.9903 282.451 48.9498C282.451 48.8689 282.41 48.8284 282.41 48.7475C282.41 48.6666 282.37 48.5857 282.37 48.5047C282.37 48.4238 282.37 48.343 282.37 48.3025C282.37 48.2215 282.37 48.1002 282.37 48.0193L282.41 17.7957C282.41 17.6743 282.41 17.5529 282.41 17.4315C282.41 17.391 282.41 17.3506 282.41 17.3101C282.41 17.2292 282.451 17.1483 282.451 17.0269C282.451 16.9865 282.451 16.946 282.491 16.9056C282.491 16.8246 282.532 16.7437 282.532 16.7032C282.532 16.6628 282.572 16.6224 282.572 16.5819C282.572 16.5009 282.613 16.42 282.653 16.3796C282.653 16.3391 282.693 16.2987 282.693 16.2582C282.734 16.1772 282.774 16.0559 282.815 15.975C282.815 15.975 282.815 15.9345 282.855 15.9345C282.896 15.8131 282.977 15.6918 283.017 15.6108C283.017 15.5703 283.057 15.5704 283.057 15.5299C283.138 15.4086 283.219 15.2871 283.3 15.1658C283.3 15.1658 283.3 15.1253 283.341 15.1253C283.421 15.0039 283.543 14.8825 283.624 14.8016C283.624 14.7612 283.664 14.7612 283.664 14.7207C283.745 14.5993 283.866 14.5184 283.988 14.4375L284.028 14.397C284.15 14.3161 284.23 14.2352 284.352 14.1947C284.473 14.1138 284.594 14.0733 284.716 14.0329C284.756 14.0329 284.797 13.9924 284.837 13.9924L274.48 10.9175C274.439 10.9175 274.399 10.9175 274.399 10.9579H274.358C274.237 10.9984 274.116 11.0388 273.994 11.1198C273.873 11.2007 273.752 11.2412 273.671 11.3221L273.63 11.3625C273.509 11.4435 273.428 11.5244 273.307 11.6457C273.307 11.6862 273.266 11.6862 273.266 11.7267C273.185 11.8481 273.064 11.9289 272.983 12.0504V12.0909C272.902 12.2122 272.821 12.3336 272.74 12.4549C272.74 12.4549 272.74 12.4954 272.699 12.4954V12.5358C272.659 12.6573 272.578 12.7382 272.537 12.8595V12.9C272.497 12.981 272.456 13.1023 272.416 13.1832V13.2237C272.416 13.2642 272.416 13.2642 272.376 13.3046C272.335 13.3855 272.335 13.426 272.295 13.5069V13.5474C272.295 13.5879 272.295 13.5879 272.295 13.6283C272.295 13.7092 272.254 13.7901 272.254 13.8306C272.254 13.8711 272.254 13.8711 272.254 13.9115V13.952C272.254 14.0329 272.214 14.1138 272.214 14.2352C272.214 14.2757 272.214 14.2757 272.214 14.3161C272.214 14.3161 272.214 14.3161 272.214 14.3565C272.214 14.478 272.214 14.5993 272.214 14.7207L272.173 44.9443C272.173 44.9848 272.173 45.0252 272.173 45.0252C272.173 45.1061 272.173 45.1466 272.173 45.2275C272.173 45.3084 272.173 45.3893 272.173 45.4298C272.173 45.5107 272.214 45.5917 272.214 45.6726C272.214 45.7535 272.254 45.7939 272.254 45.8749C272.254 45.9558 272.295 46.0367 272.335 46.0771C272.376 46.1176 272.376 46.1986 272.416 46.239C272.456 46.3199 272.497 46.3604 272.497 46.4413C272.537 46.4818 272.537 46.5627 272.578 46.6031C272.618 46.684 272.659 46.7245 272.699 46.765C272.74 46.8055 272.74 46.8459 272.78 46.8864C272.821 46.9268 272.861 47.0077 272.942 47.0482C272.983 47.0887 273.023 47.1291 273.064 47.1291C273.104 47.1696 273.185 47.21 273.266 47.2505C273.307 47.2909 273.347 47.2909 273.347 47.3314C273.428 47.3719 273.55 47.4124 273.63 47.4528L283.988 50.5278C283.866 50.4873 283.785 50.4468 283.664 50.4064C283.502 50.4064 283.502 50.3659 283.462 50.3254Z"
                fill="#A6B0C3" />
            <path
                d="M324.287 3.63504C325.622 3.2709 326.714 4.44424 326.714 6.22447L326.674 26.6568V36.448V46.6844C326.674 47.9791 325.865 49.0311 325.015 49.2739C324.691 49.3548 324.327 49.3143 324.003 49.0715L315.547 42.5575L284.798 50.5281C283.463 50.8922 282.37 49.7189 282.37 47.9386L282.411 17.7151C282.411 15.9348 283.503 14.1951 284.838 13.8714L324.287 3.63504Z"
                fill="#CFD6E4" />
            <path
                d="M316.518 18.3622C318.905 17.7553 320.806 19.7784 320.806 22.9342C320.806 26.0901 318.865 29.1246 316.477 29.7315C314.09 30.3384 312.188 28.3154 312.188 25.1595C312.229 22.0441 314.171 18.9691 316.518 18.3622Z"
                fill="white" />
            <path
                d="M304.38 21.356C306.767 20.7491 308.668 22.7721 308.668 25.9279C308.668 29.0839 306.727 32.1184 304.339 32.7253C301.952 33.3322 300.051 31.3091 300.051 28.1533C300.091 24.9974 301.992 21.9629 304.38 21.356Z"
                fill="white" />
            <path
                d="M292.364 24.4717C294.751 23.8648 296.652 25.8878 296.652 29.0437C296.652 32.1996 294.71 35.234 292.323 35.8409C289.936 36.4478 288.034 34.4248 288.034 31.269C288.075 28.1131 289.976 25.0786 292.364 24.4717Z"
                fill="white" />
            <path
                d="M202.907 34.3035C202.867 34.3035 202.826 34.263 202.746 34.263C202.705 34.263 202.624 34.263 202.584 34.2225C202.543 34.2225 202.503 34.2225 202.503 34.2225C202.422 34.2225 202.382 34.2225 202.301 34.2225C202.26 34.2225 202.26 34.2225 202.22 34.2225C202.139 34.2225 202.058 34.263 201.937 34.263L198.781 35.0722C199.428 36.3264 199.832 37.9044 199.832 39.7251C199.832 42.2336 199.064 44.7017 197.85 46.7247L199.59 47.4125L196.838 53.0769L191.376 51.499C191.336 51.499 191.295 51.4585 191.214 51.4585L191.093 51.418C188.625 50.5684 186.885 47.7362 186.885 43.8925C186.885 38.6327 190.122 33.5752 194.087 32.5233C195.017 32.2805 195.908 32.2805 196.717 32.5233L202.907 34.3035Z"
                fill="#A6B0C3" />
            <path
                d="M199.873 34.1821C203.837 33.1302 207.074 36.5693 207.034 41.8291C207.034 47.0889 203.797 52.1464 199.832 53.1983C195.867 54.2503 192.63 50.8111 192.63 45.5918C192.671 40.3321 195.907 35.2341 199.873 34.1821Z"
                fill="#D4DDE9" />
            <path
                d="M258.136 45.0254C258.095 45.0254 258.055 45.0254 258.055 44.9849C258.014 44.9849 257.974 44.9849 257.974 44.9849C257.934 44.9849 257.934 44.9849 257.893 44.9849C257.853 44.9849 257.812 44.9849 257.772 44.9849H257.731C257.691 44.9849 257.61 44.9849 257.57 45.0254L255.546 45.5514C255.951 46.3606 256.193 47.3721 256.193 48.5454C256.193 50.1638 255.708 51.7417 254.939 53.0365L256.072 53.4815L254.333 57.1229L250.813 56.1114C250.772 56.1114 250.732 56.1114 250.732 56.071L250.651 56.0305C249.073 55.5045 247.94 53.6434 247.94 51.1753C247.94 47.8171 250.003 44.5399 252.593 43.852C253.199 43.6903 253.766 43.6903 254.292 43.852L258.136 45.0254Z"
                fill="#CFD6E4" />
            <path
                d="M256.193 44.9848C258.741 44.3374 260.805 46.5222 260.805 49.8804C260.805 53.2386 258.741 56.5158 256.193 57.1632C253.644 57.8106 251.58 55.6257 251.58 52.2676C251.58 48.9094 253.644 45.6321 256.193 44.9848Z"
                fill="#D9E0EF" />
            <path
                d="M106.005 57.6892C105.965 57.6892 105.924 57.6892 105.924 57.6487C105.884 57.6487 105.844 57.6487 105.844 57.6487C105.803 57.6487 105.803 57.6487 105.763 57.6487C105.722 57.6487 105.682 57.6487 105.641 57.6487H105.601C105.56 57.6487 105.48 57.6487 105.439 57.6892L103.416 58.2151C103.82 59.0243 104.063 60.0358 104.063 61.2091C104.063 62.8276 103.578 64.4055 102.809 65.7002L103.942 66.1453L102.202 69.7867L98.6417 68.7752C98.6015 68.7752 98.5607 68.7752 98.5607 68.7347L98.4797 68.6942C96.902 68.1683 95.7688 66.3071 95.7688 63.839C95.7688 60.4809 97.8324 57.2036 100.422 56.5158C101.029 56.3539 101.596 56.3539 102.121 56.5158L106.005 57.6892Z"
                fill="#CFD6E4" />
            <path
                d="M104.063 57.6087C106.611 56.9614 108.675 59.1462 108.675 62.5043C108.675 65.8625 106.611 69.1397 104.063 69.7871C101.514 70.4345 99.45 68.2496 99.45 64.8915C99.4099 61.5333 101.474 58.2965 104.063 57.6087Z"
                fill="#D9E0EF" />
            <path
                d="M357.06 63.1516C357.02 63.1516 356.979 63.1112 356.939 63.1112C356.898 63.1112 356.858 63.1112 356.777 63.0707C356.737 63.0707 356.737 63.0707 356.696 63.0707C356.615 63.0707 356.575 63.0707 356.494 63.0707C356.453 63.0707 356.453 63.0707 356.413 63.0707C356.332 63.0707 356.251 63.1112 356.17 63.1112L353.257 63.8799C353.864 65.0532 354.228 66.5098 354.228 68.1687C354.228 70.5153 353.54 72.7809 352.407 74.6424L354.026 75.2896L351.476 80.5494L346.419 79.0929C346.378 79.0929 346.338 79.0527 346.297 79.0527L346.176 79.0119C343.87 78.2435 342.292 75.5727 342.292 72.0528C342.292 67.1976 345.286 62.5043 348.968 61.5332C349.817 61.2905 350.667 61.3309 351.396 61.5332L357.06 63.1516Z"
                fill="#A6B0C3" />
            <path
                d="M354.267 63.0304C357.949 62.0593 360.902 65.2152 360.902 70.0704C360.902 74.9255 357.908 79.619 354.226 80.5902C350.545 81.5608 347.591 78.4055 347.591 73.55C347.591 68.6948 350.585 64.0014 354.267 63.0304Z"
                fill="#D4DDE9" />
            <path d="M370.577 194.01H0V258.521H370.577V194.01Z" fill="url(#paint0_linear_223_98)" />
        </g>
    </g>
    <defs>
        <linearGradient id="paint0_linear_223_98" x1="185.288" y1="194.01" x2="185.288" y2="258.521"
            gradientUnits="userSpaceOnUse">
            <stop stop-color="#F8FAFD" stop-opacity="0" />
            <stop offset="1" stop-color="#F8FAFD" />
        </linearGradient>
        <clipPath id="clip0_223_98">
            <rect width="410" height="258.042" fill="white" transform="translate(0 0.479004)" />
        </clipPath>
    </defs>
</svg>
    