<svg xmlns="http://www.w3.org/2000/svg" width="11" height="10" viewBox="0 0 11 10" fill="none">
    <path
        d="M0.615221 3.81776C0.667612 3.65924 0.766041 3.51941 0.898274 3.41565C1.03051 3.31189 1.19072 3.24878 1.35899 3.23416L3.81523 3.02446L4.77618 0.764096C4.84228 0.610381 4.95275 0.47927 5.09382 0.387102C5.23489 0.294935 5.40032 0.245789 5.5695 0.245789C5.73867 0.245789 5.9041 0.294935 6.04517 0.387102C6.18624 0.47927 6.29672 0.610381 6.36282 0.764096L7.32506 3.02446L9.7813 3.23416C9.95048 3.24799 10.1118 3.31083 10.2449 3.4148C10.378 3.51877 10.4771 3.65923 10.5297 3.81857C10.5822 3.97791 10.586 4.14902 10.5404 4.31044C10.4948 4.47186 10.4019 4.61639 10.2734 4.7259L8.40667 6.33376L8.96686 8.72599C9.00528 8.88888 8.9942 9.05934 8.93501 9.21606C8.87582 9.37278 8.77115 9.50879 8.63407 9.60711C8.497 9.70542 8.33361 9.76167 8.16432 9.76882C7.99504 9.77597 7.82738 9.73371 7.68229 9.64732L5.57079 8.38144L3.45929 9.64732C3.31421 9.73357 3.1466 9.77572 2.9774 9.76851C2.80819 9.76129 2.64489 9.70502 2.5079 9.60673C2.3709 9.50844 2.26628 9.37248 2.2071 9.21584C2.14792 9.0592 2.13681 8.88882 2.17515 8.72599L2.73534 6.33376L0.868602 4.7259C0.740449 4.61599 0.648035 4.47117 0.602958 4.3096C0.55788 4.14804 0.562146 3.97693 0.615221 3.81776ZM3.49161 5.63064C3.60978 5.73213 3.6977 5.8635 3.74592 6.01061C3.79413 6.15773 3.80081 6.31504 3.76524 6.46562L3.27442 8.5635L5.12479 7.45416C5.25916 7.37339 5.41346 7.33066 5.57079 7.33066C5.72812 7.33066 5.88242 7.37339 6.01679 7.45416L7.86716 8.5635L7.37634 6.46562C7.34077 6.31504 7.34745 6.15773 7.39567 6.01061C7.44388 5.8635 7.5318 5.73213 7.64998 5.63064L9.29135 4.21717L7.13072 4.03256C6.97426 4.01934 6.82447 3.964 6.69766 3.87258C6.57085 3.78115 6.47188 3.65715 6.41151 3.51405L5.57079 1.53655L4.73007 3.51405C4.6697 3.65715 4.57073 3.78115 4.44392 3.87258C4.31711 3.964 4.16732 4.01934 4.01086 4.03256L1.85023 4.21717L3.49161 5.63064Z"
        fill="#808A9D" />
</svg>